<svg width="130" height="69" viewBox="0 0 130 69" fill="none" xmlns="http://www.w3.org/2000/svg">
<rect width="130" height="69" rx="15" fill="#F5F5F5"/>
<path d="M16.2344 25.1025L11.9619 17.8701L12.7412 17.8291V25H10.957V16.2227H12.7822L17 23.3115L16.2139 23.3525V16.2227H17.998V24.9248L16.2344 25.1025ZM22.3918 25.0889C21.3755 25.0889 20.6099 24.7995 20.0949 24.2207C19.5845 23.6374 19.3293 22.7487 19.3293 21.5547C19.3293 20.3652 19.5845 19.4811 20.0949 18.9023C20.6099 18.319 21.3755 18.0273 22.3918 18.0273C23.4035 18.0273 24.1646 18.319 24.675 18.9023C25.19 19.4811 25.4475 20.3652 25.4475 21.5547C25.4475 22.7487 25.19 23.6374 24.675 24.2207C24.1646 24.7995 23.4035 25.0889 22.3918 25.0889ZM22.3918 23.6191C22.843 23.6191 23.1665 23.4619 23.3625 23.1475C23.5585 22.833 23.6564 22.3021 23.6564 21.5547C23.6564 20.8118 23.5562 20.2832 23.3557 19.9688C23.1551 19.6543 22.8339 19.4971 22.3918 19.4971C21.9452 19.4971 21.6216 19.6543 21.4211 19.9688C21.2206 20.2832 21.1203 20.8118 21.1203 21.5547C21.1203 22.3021 21.2183 22.833 21.4143 23.1475C21.6102 23.4619 21.9361 23.6191 22.3918 23.6191ZM31.1451 25V18.1299H32.6695L32.8404 18.5674C33.2278 18.3623 33.5628 18.221 33.8453 18.1436C34.1279 18.0661 34.44 18.0273 34.7818 18.0273C35.0963 18.0273 35.3993 18.0866 35.691 18.2051C35.9872 18.319 36.2402 18.5286 36.4498 18.834L36.108 18.8477C36.5501 18.556 36.9739 18.3464 37.3795 18.2188C37.7896 18.0911 38.1975 18.0273 38.6031 18.0273C39.0452 18.0273 39.4303 18.1162 39.7584 18.2939C40.0911 18.4671 40.3486 18.7337 40.5309 19.0938C40.7177 19.4492 40.8111 19.9072 40.8111 20.4678V25H39.0201V20.8232C39.0201 20.363 38.9563 20.0394 38.8287 19.8525C38.7057 19.6611 38.4778 19.5654 38.1451 19.5654C37.8808 19.5654 37.6096 19.6201 37.3316 19.7295C37.0582 19.8343 36.7984 19.9847 36.5523 20.1807L36.6002 19.1006C36.6822 19.251 36.7483 19.4538 36.7984 19.709C36.8486 19.9642 36.8736 20.2171 36.8736 20.4678V25H35.0826V20.8232C35.0826 20.363 35.0188 20.0394 34.8912 19.8525C34.7682 19.6611 34.538 19.5654 34.2008 19.5654C33.9365 19.5654 33.6653 19.6201 33.3873 19.7295C33.1139 19.8343 32.8541 19.9847 32.608 20.1807L32.9361 18.9297V25H31.1451ZM45.157 25.0889C44.118 25.0889 43.325 24.7949 42.7781 24.207C42.2313 23.6191 41.9578 22.7419 41.9578 21.5752C41.9578 20.9144 42.0398 20.3584 42.2039 19.9072C42.368 19.4515 42.5936 19.0869 42.8807 18.8135C43.1723 18.5355 43.505 18.335 43.8787 18.2119C44.257 18.0889 44.6557 18.0273 45.075 18.0273C45.6219 18.0273 46.1027 18.1413 46.5174 18.3691C46.9367 18.597 47.2625 18.932 47.4949 19.374C47.7319 19.8115 47.8504 20.3516 47.8504 20.9941C47.8504 21.1081 47.8458 21.2767 47.8367 21.5C47.8322 21.7233 47.8162 21.9352 47.7889 22.1357H43.1199L43.7488 21.6777C43.7397 22.1699 43.7921 22.5596 43.9061 22.8467C44.02 23.1292 44.1863 23.332 44.4051 23.4551C44.6284 23.5736 44.8973 23.6328 45.2117 23.6328C45.5535 23.6328 45.8657 23.5918 46.1482 23.5098C46.4354 23.4232 46.7612 23.2979 47.1258 23.1338L47.7068 24.4326C47.3331 24.6468 46.9184 24.8109 46.4627 24.9248C46.0115 25.0342 45.5763 25.0889 45.157 25.0889ZM46.1414 21.8281V21.1377C46.1824 20.568 46.1072 20.1283 45.9158 19.8184C45.7244 19.5039 45.4259 19.3467 45.0203 19.3467C44.5555 19.3467 44.216 19.5267 44.0018 19.8867C43.7876 20.2422 43.7033 20.7708 43.7488 21.4727L43.1199 21.0078H46.6541L46.1414 21.8281ZM51.2393 25.0889C50.861 25.0889 50.4395 25.041 49.9746 24.9453C49.5143 24.8496 49.0586 24.681 48.6074 24.4395L49.1064 23.0928C49.4801 23.2887 49.8607 23.4346 50.248 23.5303C50.6354 23.6214 50.9727 23.667 51.2598 23.667C51.5742 23.667 51.8271 23.6169 52.0186 23.5166C52.2145 23.4163 52.3125 23.2409 52.3125 22.9902C52.3125 22.8307 52.2692 22.7031 52.1826 22.6074C52.1006 22.5072 51.9593 22.4297 51.7588 22.375L50.3643 22.0195C49.9131 21.8965 49.5303 21.6823 49.2158 21.377C48.9014 21.0716 48.7441 20.6523 48.7441 20.1191C48.7441 19.6634 48.8558 19.2806 49.0791 18.9707C49.3024 18.6608 49.6191 18.4261 50.0293 18.2666C50.4395 18.1071 50.9248 18.0273 51.4854 18.0273C51.8226 18.0273 52.1895 18.0661 52.5859 18.1436C52.9824 18.221 53.3538 18.3418 53.7002 18.5059L53.1875 19.8252C52.8639 19.6885 52.5426 19.5905 52.2236 19.5312C51.9046 19.472 51.6198 19.4424 51.3691 19.4424C51.0592 19.4424 50.8177 19.4948 50.6445 19.5996C50.4759 19.6999 50.3916 19.8525 50.3916 20.0576C50.3916 20.2262 50.444 20.3493 50.5488 20.4268C50.6582 20.5042 50.8314 20.5771 51.0684 20.6455L52.2578 20.9531C52.5814 21.0352 52.8708 21.1536 53.126 21.3086C53.3857 21.4635 53.5885 21.6709 53.7344 21.9307C53.8848 22.1904 53.96 22.5208 53.96 22.9219C53.96 23.3822 53.8529 23.7764 53.6387 24.1045C53.429 24.4281 53.1214 24.6742 52.7158 24.8428C52.3148 25.0068 51.8226 25.0889 51.2393 25.0889ZM57.0959 25.0889C56.7176 25.0889 56.2961 25.041 55.8312 24.9453C55.371 24.8496 54.9152 24.681 54.4641 24.4395L54.9631 23.0928C55.3368 23.2887 55.7173 23.4346 56.1047 23.5303C56.4921 23.6214 56.8293 23.667 57.1164 23.667C57.4309 23.667 57.6838 23.6169 57.8752 23.5166C58.0712 23.4163 58.1691 23.2409 58.1691 22.9902C58.1691 22.8307 58.1258 22.7031 58.0393 22.6074C57.9572 22.5072 57.8159 22.4297 57.6154 22.375L56.2209 22.0195C55.7697 21.8965 55.3869 21.6823 55.0725 21.377C54.758 21.0716 54.6008 20.6523 54.6008 20.1191C54.6008 19.6634 54.7124 19.2806 54.9357 18.9707C55.159 18.6608 55.4758 18.4261 55.8859 18.2666C56.2961 18.1071 56.7814 18.0273 57.342 18.0273C57.6792 18.0273 58.0461 18.0661 58.4426 18.1436C58.8391 18.221 59.2105 18.3418 59.5568 18.5059L59.0441 19.8252C58.7206 19.6885 58.3993 19.5905 58.0803 19.5312C57.7613 19.472 57.4764 19.4424 57.2258 19.4424C56.9159 19.4424 56.6743 19.4948 56.5012 19.5996C56.3326 19.6999 56.2482 19.8525 56.2482 20.0576C56.2482 20.2262 56.3007 20.3493 56.4055 20.4268C56.5148 20.5042 56.688 20.5771 56.925 20.6455L58.1145 20.9531C58.438 21.0352 58.7274 21.1536 58.9826 21.3086C59.2424 21.4635 59.4452 21.6709 59.591 21.9307C59.7414 22.1904 59.8166 22.5208 59.8166 22.9219C59.8166 23.3822 59.7095 23.7764 59.4953 24.1045C59.2857 24.4281 58.9781 24.6742 58.5725 24.8428C58.1714 25.0068 57.6792 25.0889 57.0959 25.0889ZM62.7543 25.1025C62.0753 25.1025 61.5193 24.9294 61.0863 24.583C60.6579 24.2367 60.4437 23.7194 60.4437 23.0312C60.4437 22.6986 60.5326 22.3636 60.7104 22.0264C60.8881 21.6891 61.1684 21.4089 61.5512 21.1855C61.9385 20.9577 62.4444 20.8438 63.0687 20.8438C63.3741 20.8392 63.6544 20.862 63.9096 20.9121C64.1648 20.9622 64.4245 21.0465 64.6889 21.165L64.3334 21.6436V20.9189C64.3334 20.5863 64.2878 20.3151 64.1967 20.1055C64.1055 19.8913 63.9688 19.734 63.7865 19.6338C63.6042 19.5335 63.3786 19.4834 63.1098 19.4834C62.8773 19.4834 62.5993 19.5107 62.2758 19.5654C61.9522 19.6156 61.5717 19.7204 61.1342 19.8799L60.8676 18.5332C61.2549 18.3691 61.6742 18.2438 62.1254 18.1572C62.5811 18.0706 63.0118 18.0273 63.4174 18.0273C63.9369 18.0273 64.3972 18.1139 64.7982 18.2871C65.1993 18.4603 65.5137 18.7451 65.7416 19.1416C65.9695 19.5335 66.0834 20.0576 66.0834 20.7139V25H64.6L64.3197 24.1523L64.6547 24.3301C64.5225 24.4577 64.3562 24.583 64.1557 24.7061C63.9551 24.8245 63.7341 24.9202 63.4926 24.9932C63.251 25.0661 63.0049 25.1025 62.7543 25.1025ZM63.0824 23.8721C63.3832 23.8721 63.6703 23.8083 63.9437 23.6807C64.2172 23.5531 64.4337 23.4095 64.5932 23.25L64.3334 24.0088V21.6846L64.6752 22.375C64.4063 22.2428 64.1693 22.154 63.9643 22.1084C63.7592 22.0583 63.5541 22.0332 63.349 22.0332C62.9799 22.0332 62.6859 22.1198 62.4672 22.293C62.253 22.4616 62.1459 22.6986 62.1459 23.0039C62.1459 23.2865 62.2279 23.5029 62.392 23.6533C62.5561 23.7992 62.7862 23.8721 63.0824 23.8721ZM70.2311 27.7959C69.6796 27.7959 69.2057 27.7458 68.8092 27.6455C68.4127 27.5498 68.0869 27.4131 67.8316 27.2354C67.581 27.0576 67.3964 26.848 67.2779 26.6064C67.1594 26.3695 67.1002 26.1097 67.1002 25.8271C67.1002 25.613 67.1344 25.4079 67.2027 25.2119C67.2711 25.0205 67.3622 24.8473 67.4762 24.6924C67.5947 24.5329 67.7245 24.3984 67.8658 24.2891C67.6562 24.1113 67.5149 23.9313 67.442 23.749C67.3691 23.5667 67.3326 23.3822 67.3326 23.1953C67.3326 22.9492 67.401 22.71 67.5377 22.4775C67.6744 22.2406 67.8886 21.9876 68.1803 21.7188L68.3033 22.2109C67.9524 21.9512 67.6926 21.6732 67.524 21.377C67.3554 21.0807 67.2711 20.7344 67.2711 20.3379C67.2711 19.5677 67.5286 18.9889 68.0436 18.6016C68.5585 18.2096 69.2649 18.0137 70.1627 18.0137C70.5546 18.0137 70.8622 18.0342 71.0855 18.0752C71.3089 18.1162 71.4934 18.1572 71.6393 18.1982C71.7851 18.2347 71.9286 18.2529 72.0699 18.2529H73.9361V19.7637H72.4459L72.7398 19.1963C72.9176 19.529 73.0064 19.9095 73.0064 20.3379C73.0064 21.1445 72.7581 21.7484 72.2613 22.1494C71.7691 22.5505 71.0696 22.751 70.1627 22.751C69.7936 22.751 69.4723 22.7122 69.1988 22.6348C68.9254 22.5527 68.6816 22.4502 68.4674 22.3271H69.3424C69.2011 22.4639 69.0895 22.6006 69.0074 22.7373C68.9254 22.8695 68.8844 23.0107 68.8844 23.1611C68.8844 23.3161 68.9322 23.446 69.0279 23.5508C69.1236 23.651 69.2512 23.7012 69.4107 23.7012H71.4479C72.1451 23.7012 72.676 23.8424 73.0406 24.125C73.4052 24.403 73.5875 24.8132 73.5875 25.3555C73.5875 25.8021 73.4576 26.21 73.1979 26.5791C72.9381 26.9528 72.5576 27.249 72.0563 27.4678C71.5595 27.6865 70.9511 27.7959 70.2311 27.7959ZM70.2037 26.5449C70.623 26.5449 70.9625 26.4971 71.2223 26.4014C71.4866 26.3102 71.6803 26.1895 71.8033 26.0391C71.9309 25.8887 71.9947 25.7269 71.9947 25.5537C71.9947 25.3714 71.94 25.2347 71.8307 25.1436C71.7213 25.0524 71.5048 25.0068 71.1813 25.0068H68.0982L69.3766 24.3506C69.1669 24.5739 68.9983 24.7926 68.8707 25.0068C68.7431 25.2256 68.6793 25.4375 68.6793 25.6426C68.6793 25.7656 68.6998 25.8796 68.7408 25.9844C68.7864 26.0938 68.8639 26.1895 68.9732 26.2715C69.0872 26.3581 69.2444 26.4242 69.4449 26.4697C69.6454 26.5199 69.8984 26.5449 70.2037 26.5449ZM70.1627 21.4658C70.5546 21.4658 70.86 21.377 71.0787 21.1992C71.302 21.0215 71.4137 20.748 71.4137 20.3789C71.4137 20.0189 71.2997 19.75 71.0719 19.5723C70.8486 19.39 70.5455 19.2988 70.1627 19.2988C69.7844 19.2988 69.4814 19.39 69.2535 19.5723C69.0257 19.75 68.9117 20.0189 68.9117 20.3789C68.9117 20.7435 69.0234 21.0146 69.2467 21.1924C69.47 21.3701 69.7753 21.4613 70.1627 21.4658ZM77.5301 25.0889C76.491 25.0889 75.698 24.7949 75.1512 24.207C74.6043 23.6191 74.3309 22.7419 74.3309 21.5752C74.3309 20.9144 74.4129 20.3584 74.577 19.9072C74.741 19.4515 74.9666 19.0869 75.2537 18.8135C75.5454 18.5355 75.8781 18.335 76.2518 18.2119C76.63 18.0889 77.0288 18.0273 77.448 18.0273C77.9949 18.0273 78.4757 18.1413 78.8904 18.3691C79.3097 18.597 79.6355 18.932 79.868 19.374C80.1049 19.8115 80.2234 20.3516 80.2234 20.9941C80.2234 21.1081 80.2189 21.2767 80.2098 21.5C80.2052 21.7233 80.1893 21.9352 80.1619 22.1357H75.493L76.1219 21.6777C76.1128 22.1699 76.1652 22.5596 76.2791 22.8467C76.393 23.1292 76.5594 23.332 76.7781 23.4551C77.0014 23.5736 77.2703 23.6328 77.5848 23.6328C77.9266 23.6328 78.2387 23.5918 78.5213 23.5098C78.8084 23.4232 79.1342 23.2979 79.4988 23.1338L80.0799 24.4326C79.7062 24.6468 79.2915 24.8109 78.8357 24.9248C78.3846 25.0342 77.9493 25.0889 77.5301 25.0889ZM78.5145 21.8281V21.1377C78.5555 20.568 78.4803 20.1283 78.2889 19.8184C78.0975 19.5039 77.799 19.3467 77.3934 19.3467C76.9285 19.3467 76.589 19.5267 76.3748 19.8867C76.1606 20.2422 76.0763 20.7708 76.1219 21.4727L75.493 21.0078H79.0271L78.5145 21.8281ZM83.6123 25.0889C83.234 25.0889 82.8125 25.041 82.3477 24.9453C81.8874 24.8496 81.4316 24.681 80.9805 24.4395L81.4795 23.0928C81.8532 23.2887 82.2337 23.4346 82.6211 23.5303C83.0085 23.6214 83.3457 23.667 83.6328 23.667C83.9473 23.667 84.2002 23.6169 84.3916 23.5166C84.5876 23.4163 84.6855 23.2409 84.6855 22.9902C84.6855 22.8307 84.6423 22.7031 84.5557 22.6074C84.4736 22.5072 84.3324 22.4297 84.1318 22.375L82.7373 22.0195C82.2861 21.8965 81.9033 21.6823 81.5889 21.377C81.2744 21.0716 81.1172 20.6523 81.1172 20.1191C81.1172 19.6634 81.2288 19.2806 81.4521 18.9707C81.6755 18.6608 81.9922 18.4261 82.4023 18.2666C82.8125 18.1071 83.2979 18.0273 83.8584 18.0273C84.1956 18.0273 84.5625 18.0661 84.959 18.1436C85.3555 18.221 85.7269 18.3418 86.0732 18.5059L85.5605 19.8252C85.237 19.6885 84.9157 19.5905 84.5967 19.5312C84.2777 19.472 83.9928 19.4424 83.7422 19.4424C83.4323 19.4424 83.1908 19.4948 83.0176 19.5996C82.849 19.6999 82.7646 19.8525 82.7646 20.0576C82.7646 20.2262 82.8171 20.3493 82.9219 20.4268C83.0312 20.5042 83.2044 20.5771 83.4414 20.6455L84.6309 20.9531C84.9544 21.0352 85.2438 21.1536 85.499 21.3086C85.7588 21.4635 85.9616 21.6709 86.1074 21.9307C86.2578 22.1904 86.333 22.5208 86.333 22.9219C86.333 23.3822 86.2259 23.7764 86.0117 24.1045C85.8021 24.4281 85.4945 24.6742 85.0889 24.8428C84.6878 25.0068 84.1956 25.0889 83.6123 25.0889ZM92.6732 27.7891C92.5001 27.7891 92.2768 27.7594 92.0033 27.7002C91.7299 27.641 91.4906 27.5521 91.2855 27.4336L91.723 26.0596C91.8734 26.1188 92.0215 26.1621 92.1674 26.1895C92.3132 26.2214 92.4363 26.2373 92.5365 26.2373C92.7689 26.2373 92.9421 26.1689 93.0561 26.0322C93.1745 25.9001 93.2816 25.6882 93.3773 25.3965L93.6303 24.6445L93.6439 25.2188L91.0189 18.2734L92.7826 18.0068L94.7172 23.8652H94.0951L95.7631 18.0068L97.5062 18.2734L95.1752 25.2939C94.9929 25.8408 94.8083 26.2988 94.6215 26.668C94.4392 27.0417 94.1977 27.3219 93.8969 27.5088C93.6006 27.6956 93.1928 27.7891 92.6732 27.7891ZM101.162 25.0889C100.123 25.0889 99.3297 24.7949 98.7828 24.207C98.2359 23.6191 97.9625 22.7419 97.9625 21.5752C97.9625 20.9144 98.0445 20.3584 98.2086 19.9072C98.3727 19.4515 98.5982 19.0869 98.8854 18.8135C99.177 18.5355 99.5097 18.335 99.8834 18.2119C100.262 18.0889 100.66 18.0273 101.08 18.0273C101.627 18.0273 102.107 18.1413 102.522 18.3691C102.941 18.597 103.267 18.932 103.5 19.374C103.737 19.8115 103.855 20.3516 103.855 20.9941C103.855 21.1081 103.851 21.2767 103.841 21.5C103.837 21.7233 103.821 21.9352 103.794 22.1357H99.1246L99.7535 21.6777C99.7444 22.1699 99.7968 22.5596 99.9107 22.8467C100.025 23.1292 100.191 23.332 100.41 23.4551C100.633 23.5736 100.902 23.6328 101.216 23.6328C101.558 23.6328 101.87 23.5918 102.153 23.5098C102.44 23.4232 102.766 23.2979 103.13 23.1338L103.712 24.4326C103.338 24.6468 102.923 24.8109 102.467 24.9248C102.016 25.0342 101.581 25.0889 101.162 25.0889ZM102.146 21.8281V21.1377C102.187 20.568 102.112 20.1283 101.921 19.8184C101.729 19.5039 101.431 19.3467 101.025 19.3467C100.56 19.3467 100.221 19.5267 100.006 19.8867C99.7923 20.2422 99.7079 20.7708 99.7535 21.4727L99.1246 21.0078H102.659L102.146 21.8281ZM107.798 25.0684C107.014 25.0684 106.426 24.8337 106.034 24.3643C105.642 23.8949 105.446 23.209 105.446 22.3066V18.9365L106.212 19.6338H104.263V18.1299H106.239L105.446 18.8955L105.74 16.2637H107.237V18.8955L106.471 18.1299H109.247V19.6338H106.471L107.237 18.9365V22.2656C107.237 22.7396 107.31 23.0677 107.456 23.25C107.602 23.4323 107.846 23.5234 108.187 23.5234C108.31 23.5234 108.477 23.5052 108.686 23.4688C108.896 23.4323 109.074 23.3867 109.22 23.332L109.425 24.7881C109.183 24.8701 108.919 24.9385 108.632 24.9932C108.345 25.0433 108.067 25.0684 107.798 25.0684ZM110.353 25V22.7578H112.212V25H110.353ZM113.612 25V22.7578H115.471V25H113.612ZM116.871 25V22.7578H118.73V25H116.871Z" fill="#656565"/>
<path d="M23.3754 52.0996L22.2738 51.918L24.5941 44.4766H26.0941L28.3324 51.918L27.2602 52.0996L26.6098 49.8965L27.1137 50.3242H23.5219L24.0375 49.9141L23.3754 52.0996ZM24.0434 49.791L23.7035 49.3984H26.8852L26.557 49.791L25.2152 45.2031H25.4203L24.0434 49.791ZM30.9332 52.0703C30.609 52.0703 30.2613 52.0273 29.8902 51.9414C29.523 51.8555 29.1734 51.7188 28.8414 51.5312L29.1695 50.6582C29.4352 50.8066 29.7262 50.9258 30.0426 51.0156C30.3629 51.1055 30.6559 51.1504 30.9215 51.1504C31.2457 51.1504 31.4996 51.0938 31.6832 50.9805C31.8707 50.8633 31.9645 50.6562 31.9645 50.3594C31.9645 50.1758 31.9195 50.0254 31.8297 49.9082C31.7437 49.791 31.5855 49.6973 31.3551 49.627L30.318 49.3398C29.9117 49.2188 29.5797 49.0352 29.3219 48.7891C29.068 48.543 28.941 48.1992 28.941 47.7578C28.941 47.3711 29.0328 47.0547 29.2164 46.8086C29.4 46.5625 29.652 46.3809 29.9723 46.2637C30.2926 46.1426 30.6559 46.082 31.0621 46.082C31.3434 46.082 31.6363 46.1133 31.941 46.1758C32.2496 46.2383 32.5348 46.332 32.7965 46.457L32.4625 47.3125C32.232 47.2148 31.9898 47.1387 31.7359 47.084C31.482 47.0254 31.2477 46.9961 31.0328 46.9961C30.7125 46.9961 30.4645 47.0547 30.2887 47.1719C30.1129 47.2852 30.025 47.4668 30.025 47.7168C30.025 47.9082 30.0797 48.0527 30.1891 48.1504C30.2984 48.248 30.4801 48.3359 30.734 48.4141L31.6715 48.6836C31.9449 48.7617 32.1852 48.8691 32.3922 49.0059C32.5992 49.1426 32.7594 49.3184 32.8727 49.5332C32.9898 49.7441 33.0484 50.0039 33.0484 50.3125C33.0484 50.7148 32.9586 51.0469 32.7789 51.3086C32.5992 51.5664 32.3512 51.7578 32.0348 51.8828C31.7184 52.0078 31.3512 52.0703 30.9332 52.0703ZM37.8055 52.0996C37.5125 51.7793 37.2332 51.4688 36.9676 51.168C36.7059 50.8633 36.452 50.5605 36.2059 50.2598C35.9598 49.9551 35.7156 49.6484 35.4734 49.3398H35.8777L34.7293 50.2246L35.1219 49.5156V52H33.9793V44.043H35.1219V49.1816L34.9344 49.0879L35.6961 48.3379L37.577 46.123L38.743 46.4043L36.2293 49.2461L36.2879 48.6191C36.7059 49.1465 37.1297 49.666 37.5594 50.1777C37.993 50.6855 38.4598 51.207 38.9598 51.7422L37.8055 52.0996ZM44.9055 52.0762C44.3469 52.0762 43.8879 51.9336 43.5285 51.6484C43.1691 51.3594 42.9895 50.9316 42.9895 50.3652C42.9895 50.0918 43.0617 49.8145 43.2062 49.5332C43.3547 49.248 43.591 49.0098 43.9152 48.8184C44.2434 48.623 44.673 48.5254 45.2043 48.5254C45.4152 48.5254 45.6418 48.543 45.884 48.5781C46.1301 48.6094 46.384 48.6738 46.6457 48.7715L46.341 49.0703V48.4668C46.341 48.0996 46.2961 47.8105 46.2062 47.5996C46.1164 47.3887 45.9855 47.2383 45.8137 47.1484C45.6457 47.0586 45.4426 47.0137 45.2043 47.0137C44.9895 47.0137 44.7395 47.0391 44.4543 47.0898C44.1691 47.1406 43.8605 47.2227 43.5285 47.3359L43.341 46.4688C43.6574 46.3477 43.9934 46.2539 44.3488 46.1875C44.7043 46.1172 45.0402 46.082 45.3566 46.082C45.7863 46.082 46.1594 46.1543 46.4758 46.2988C46.7922 46.4395 47.0344 46.6738 47.2023 47.002C47.3742 47.3262 47.4602 47.7676 47.4602 48.3262V52H46.5461L46.3352 51.3027L46.552 51.4844C46.4582 51.5742 46.3234 51.6641 46.1477 51.7539C45.9758 51.8438 45.7824 51.9199 45.5676 51.9824C45.3527 52.0449 45.132 52.0762 44.9055 52.0762ZM45.1047 51.2441C45.3781 51.2441 45.6437 51.1953 45.9016 51.0977C46.1594 50.9961 46.3605 50.8809 46.5051 50.752L46.341 51.2441V49.1055L46.5871 49.5742C46.3605 49.4688 46.1535 49.3984 45.966 49.3633C45.7824 49.3281 45.6086 49.3105 45.4445 49.3105C45.0266 49.3105 44.6965 49.3984 44.4543 49.5742C44.216 49.75 44.0969 50.002 44.0969 50.3301C44.0969 50.6465 44.1848 50.8789 44.3605 51.0273C44.5363 51.1719 44.7844 51.2441 45.1047 51.2441ZM48.8012 52V46.1699H49.7387L49.8617 46.5449C50.2328 46.3652 50.5453 46.2441 50.7992 46.1816C51.057 46.1152 51.3344 46.082 51.6312 46.082C52.0102 46.082 52.3324 46.1562 52.598 46.3047C52.8676 46.4492 53.0746 46.6719 53.2191 46.9727C53.3637 47.2734 53.4359 47.6543 53.4359 48.1152V52H52.2934V48.25C52.2934 47.8242 52.225 47.5176 52.0883 47.3301C51.9555 47.1426 51.7172 47.0488 51.3734 47.0488C51.1312 47.0488 50.8695 47.0879 50.5883 47.166C50.3109 47.2402 50.0141 47.3828 49.6977 47.5938L49.9437 46.9258V52H48.8012ZM55.3746 54.3848C55.2262 54.3848 55.0523 54.3613 54.8531 54.3145C54.6578 54.2715 54.4723 54.209 54.2965 54.127L54.566 53.2305C54.7066 53.2891 54.8395 53.3301 54.9645 53.3535C55.0934 53.377 55.2008 53.3887 55.2867 53.3887C55.4781 53.3887 55.6246 53.3281 55.7262 53.207C55.8316 53.0898 55.9273 52.9004 56.0133 52.6387L56.2945 51.7715L56.3062 52.2754L54.1734 46.2754L55.2867 46.0996L56.9625 51.2383H56.5875L58.1051 46.0996L59.2125 46.2754L57.1734 52.5332C57.0445 52.9316 56.9117 53.2676 56.775 53.541C56.6383 53.8184 56.4625 54.0273 56.2477 54.168C56.0328 54.3125 55.7418 54.3848 55.3746 54.3848ZM67.2441 54.2793V51.6953C67.0254 51.8281 66.791 51.9238 66.541 51.9824C66.291 52.041 66.0469 52.0703 65.8086 52.0703C65.1133 52.0703 64.5703 51.8359 64.1797 51.3672C63.7891 50.8945 63.5938 50.1328 63.5938 49.082C63.5938 48.0469 63.7656 47.2891 64.1094 46.8086C64.457 46.3242 64.9844 46.082 65.6914 46.082C65.9297 46.082 66.1875 46.1211 66.4648 46.1992C66.7461 46.2734 67.0293 46.3945 67.3145 46.5625L67.4375 46.1699H68.3867V54.2793H67.2441ZM67.2441 51.4023V46.9668L67.666 47.7754C67.291 47.4941 66.9648 47.3027 66.6875 47.2012C66.4102 47.0996 66.1562 47.0488 65.9258 47.0488C65.5039 47.0488 65.1992 47.2129 65.0117 47.541C64.8281 47.8652 64.7363 48.3809 64.7363 49.0879C64.7363 49.8223 64.8379 50.3418 65.041 50.6465C65.248 50.9473 65.584 51.0977 66.0488 51.0977C66.3418 51.0977 66.6035 51.0508 66.834 50.957C67.0684 50.8594 67.3379 50.7012 67.6426 50.4824L67.2441 51.4023ZM71.5148 52.0879C71.1398 52.0879 70.8176 52.0156 70.548 51.8711C70.2824 51.7227 70.0773 51.498 69.9328 51.1973C69.7922 50.8965 69.7219 50.5156 69.7219 50.0547V46.1699H70.8645V49.9141C70.8645 50.3438 70.9309 50.6523 71.0637 50.8398C71.1965 51.0273 71.4328 51.1211 71.7727 51.1211C72.0109 51.1211 72.2687 51.084 72.5461 51.0098C72.8234 50.9316 73.1164 50.7871 73.425 50.5762L73.1789 51.2441V46.1699H74.3215V52H73.384L73.2609 51.625C72.8937 51.8047 72.5832 51.9277 72.3293 51.9941C72.0754 52.0566 71.8039 52.0879 71.5148 52.0879ZM78.0355 52.0703C77.2152 52.0703 76.5824 51.8281 76.1371 51.3438C75.6957 50.8555 75.475 50.0996 75.475 49.0762C75.475 48.541 75.5395 48.084 75.6684 47.7051C75.7973 47.3262 75.975 47.0176 76.2016 46.7793C76.432 46.5371 76.6977 46.3613 76.9984 46.252C77.3031 46.1387 77.6293 46.082 77.977 46.082C78.4301 46.082 78.8227 46.1797 79.1547 46.375C79.4906 46.5664 79.7504 46.8438 79.934 47.207C80.1176 47.5703 80.2094 48.0059 80.2094 48.5137C80.2094 48.6035 80.2055 48.7305 80.1977 48.8945C80.1937 49.0586 80.182 49.2266 80.1625 49.3984H76.2191L76.6234 49.041C76.6078 49.5996 76.6625 50.0312 76.7875 50.3359C76.9164 50.6367 77.0941 50.8457 77.3207 50.9629C77.5473 51.0801 77.8031 51.1387 78.0883 51.1387C78.3969 51.1387 78.6781 51.1035 78.932 51.0332C79.1859 50.959 79.4516 50.8574 79.7289 50.7285L80.1039 51.5547C79.8148 51.7188 79.4867 51.8457 79.1195 51.9355C78.7562 52.0254 78.3949 52.0703 78.0355 52.0703ZM79.1254 49.1348V48.6777C79.1605 48.1426 79.0766 47.7227 78.8734 47.418C78.6742 47.1094 78.3695 46.9551 77.9594 46.9551C77.4906 46.9551 77.1391 47.1309 76.9047 47.4824C76.6742 47.834 76.5805 48.3281 76.6234 48.9648L76.2191 48.6484H79.477L79.1254 49.1348ZM83.0973 52.0703C82.773 52.0703 82.4254 52.0273 82.0543 51.9414C81.6871 51.8555 81.3375 51.7188 81.0055 51.5312L81.3336 50.6582C81.5992 50.8066 81.8902 50.9258 82.2066 51.0156C82.527 51.1055 82.8199 51.1504 83.0855 51.1504C83.4098 51.1504 83.6637 51.0938 83.8473 50.9805C84.0348 50.8633 84.1285 50.6562 84.1285 50.3594C84.1285 50.1758 84.0836 50.0254 83.9937 49.9082C83.9078 49.791 83.7496 49.6973 83.5191 49.627L82.482 49.3398C82.0758 49.2188 81.7437 49.0352 81.4859 48.7891C81.232 48.543 81.1051 48.1992 81.1051 47.7578C81.1051 47.3711 81.1969 47.0547 81.3805 46.8086C81.5641 46.5625 81.816 46.3809 82.1363 46.2637C82.4566 46.1426 82.8199 46.082 83.2262 46.082C83.5074 46.082 83.8004 46.1133 84.1051 46.1758C84.4137 46.2383 84.6988 46.332 84.9605 46.457L84.6266 47.3125C84.3961 47.2148 84.1539 47.1387 83.9 47.084C83.6461 47.0254 83.4117 46.9961 83.1969 46.9961C82.8766 46.9961 82.6285 47.0547 82.4527 47.1719C82.277 47.2852 82.1891 47.4668 82.1891 47.7168C82.1891 47.9082 82.2437 48.0527 82.3531 48.1504C82.4625 48.248 82.6441 48.3359 82.898 48.4141L83.8355 48.6836C84.109 48.7617 84.3492 48.8691 84.5562 49.0059C84.7633 49.1426 84.9234 49.3184 85.0367 49.5332C85.1539 49.7441 85.2125 50.0039 85.2125 50.3125C85.2125 50.7148 85.1227 51.0469 84.943 51.3086C84.7633 51.5664 84.5152 51.7578 84.1988 51.8828C83.8824 52.0078 83.5152 52.0703 83.0973 52.0703ZM88.1648 52.0586C87.5594 52.0586 87.1062 51.8809 86.8055 51.5254C86.5086 51.166 86.3602 50.6191 86.3602 49.8848V46.6621L86.8172 47.1074H85.4051V46.1699H86.8406L86.3602 46.627L86.5652 44.5469H87.5027V46.627L87.0398 46.1699H89.2605V47.1074H87.0398L87.5027 46.6621V49.873C87.5027 50.3301 87.5691 50.6484 87.702 50.8281C87.8348 51.0039 88.0691 51.0918 88.4051 51.0918C88.5262 51.0918 88.6668 51.0781 88.827 51.0508C88.991 51.0234 89.1336 50.9902 89.2547 50.9512L89.3836 51.8711C89.1922 51.9258 88.9891 51.9707 88.7742 52.0059C88.5633 52.041 88.3602 52.0586 88.1648 52.0586ZM89.9277 52V51.0801H91.0938V47.0898H89.9688V46.1699H92.2363V51.0801H93.3965V52H89.9277ZM91.6504 45.25C91.4395 45.25 91.2598 45.1758 91.1113 45.0273C90.9629 44.8789 90.8887 44.6992 90.8887 44.4883C90.8887 44.2812 90.9629 44.1035 91.1113 43.9551C91.2598 43.8066 91.4395 43.7324 91.6504 43.7324C91.8613 43.7324 92.0391 43.8066 92.1836 43.9551C92.332 44.1035 92.4062 44.2812 92.4062 44.4883C92.4062 44.6992 92.332 44.8789 92.1836 45.0273C92.0391 45.1758 91.8613 45.25 91.6504 45.25ZM96.4719 52.0703C95.6437 52.0703 95.0305 51.8203 94.632 51.3203C94.2336 50.8164 94.0344 50.0684 94.0344 49.0762C94.0344 48.0801 94.2336 47.332 94.632 46.832C95.0305 46.332 95.6437 46.082 96.4719 46.082C97.3 46.082 97.9133 46.332 98.3117 46.832C98.7102 47.332 98.9094 48.0801 98.9094 49.0762C98.9094 50.0684 98.7102 50.8164 98.3117 51.3203C97.9133 51.8203 97.3 52.0703 96.4719 52.0703ZM96.4719 51.127C96.9523 51.127 97.2883 50.9551 97.4797 50.6113C97.6711 50.2676 97.7668 49.7559 97.7668 49.0762C97.7668 48.3926 97.6711 47.8789 97.4797 47.5352C97.2883 47.1914 96.9523 47.0195 96.4719 47.0195C95.9914 47.0195 95.6555 47.1914 95.4641 47.5352C95.2727 47.8789 95.1769 48.3926 95.1769 49.0762C95.1769 49.7559 95.2707 50.2676 95.4582 50.6113C95.6496 50.9551 95.9875 51.127 96.4719 51.127ZM100.063 52V46.1699H101L101.123 46.5449C101.495 46.3652 101.807 46.2441 102.061 46.1816C102.319 46.1152 102.596 46.082 102.893 46.082C103.272 46.082 103.594 46.1562 103.86 46.3047C104.129 46.4492 104.336 46.6719 104.481 46.9727C104.625 47.2734 104.698 47.6543 104.698 48.1152V52H103.555V48.25C103.555 47.8242 103.487 47.5176 103.35 47.3301C103.217 47.1426 102.979 47.0488 102.635 47.0488C102.393 47.0488 102.131 47.0879 101.85 47.166C101.573 47.2402 101.276 47.3828 100.959 47.5938L101.205 46.9258V52H100.063ZM105.968 52V50.4473H107.24V52H105.968Z" fill="#656565"/>
</svg>
