<svg width="29" height="28" viewBox="0 0 29 28" fill="none" xmlns="http://www.w3.org/2000/svg">
<path d="M5.16699 22.7502V5.25016C5.16699 4.47661 5.47428 3.73475 6.02126 3.18777C6.56825 2.64079 7.31011 2.3335 8.08366 2.3335H22.667C22.9764 2.3335 23.2732 2.45641 23.492 2.6752C23.7107 2.894 23.8337 3.19074 23.8337 3.50016V24.5002C23.8337 24.8096 23.7107 25.1063 23.492 25.3251C23.2732 25.5439 22.9764 25.6668 22.667 25.6668H8.08366C7.31011 25.6668 6.56825 25.3595 6.02126 24.8126C5.47428 24.2656 5.16699 23.5237 5.16699 22.7502ZM5.16699 22.7502C5.16699 21.9766 5.47428 21.2348 6.02126 20.6878C6.56825 20.1408 7.31011 19.8335 8.08366 19.8335H23.8337" stroke="#656565" stroke-width="2" stroke-linecap="round" stroke-linejoin="round"/>
</svg>
