<svg width="501" height="36" viewBox="0 0 501 36" fill="none" xmlns="http://www.w3.org/2000/svg">
<g filter="url(#filter0_i_720_10034)">
<rect width="501" height="36" rx="5" fill="white"/>
<line x1="210" y1="28" x2="210" y2="8" stroke="#918E8E" stroke-width="4"/>
<line x1="200" y1="18" x2="220" y2="18" stroke="#918E8E" stroke-width="4"/>
<path d="M230.984 22.0952C229.905 22.0952 229.073 21.7803 228.487 21.1504C227.906 20.5156 227.615 19.583 227.615 18.3525C227.615 17.0537 227.896 16.0918 228.458 15.4668C229.024 14.8418 229.856 14.5293 230.955 14.5293C231.795 14.5293 232.549 14.7246 233.218 15.1152V17.4956L231.585 17.6641V15.2104L232.471 16.6094C232.261 16.4678 232.015 16.3481 231.731 16.2505C231.453 16.1528 231.192 16.104 230.948 16.104C230.611 16.104 230.337 16.1821 230.127 16.3384C229.922 16.4897 229.771 16.729 229.673 17.0562C229.581 17.3833 229.534 17.8154 229.534 18.3525C229.534 19.1143 229.651 19.666 229.886 20.0078C230.125 20.3496 230.513 20.5205 231.05 20.5205C231.343 20.5205 231.631 20.4766 231.915 20.3887C232.198 20.2959 232.535 20.1592 232.925 19.9785L233.548 21.3921C233.147 21.6216 232.72 21.7974 232.266 21.9194C231.812 22.0366 231.385 22.0952 230.984 22.0952ZM234.786 22V14.6392H236.419L236.631 15.313C236.832 15.1616 237.076 15.0176 237.364 14.8809C237.652 14.7441 237.95 14.6294 238.257 14.5366C238.565 14.4438 238.843 14.3926 239.092 14.3828V16.375C238.721 16.375 238.353 16.4092 237.986 16.4775C237.625 16.541 237.3 16.6313 237.012 16.7485C236.724 16.8657 236.502 17.0049 236.346 17.166L236.705 16.1626V22H234.786ZM243.304 22.0952C242.19 22.0952 241.341 21.7803 240.755 21.1504C240.169 20.5205 239.876 19.5806 239.876 18.3306C239.876 17.6226 239.964 17.0269 240.14 16.5435C240.315 16.0552 240.557 15.6646 240.865 15.3716C241.177 15.0737 241.534 14.8589 241.934 14.7271C242.339 14.5952 242.767 14.5293 243.216 14.5293C243.802 14.5293 244.317 14.6514 244.761 14.8955C245.21 15.1396 245.56 15.4985 245.809 15.9722C246.062 16.4409 246.189 17.0195 246.189 17.708C246.189 17.8301 246.185 18.0107 246.175 18.25C246.17 18.4893 246.153 18.7163 246.124 18.9312H241.121L241.795 18.4404C241.785 18.9678 241.841 19.3853 241.963 19.6929C242.085 19.9956 242.264 20.2129 242.498 20.3447C242.737 20.4717 243.025 20.5352 243.362 20.5352C243.729 20.5352 244.063 20.4912 244.366 20.4033C244.673 20.3105 245.022 20.1763 245.413 20.0005L246.036 21.3921C245.635 21.6216 245.191 21.7974 244.703 21.9194C244.219 22.0366 243.753 22.0952 243.304 22.0952ZM244.358 18.6016V17.8618C244.402 17.2515 244.322 16.7803 244.117 16.4482C243.912 16.1113 243.592 15.9429 243.157 15.9429C242.659 15.9429 242.295 16.1357 242.066 16.5215C241.836 16.9023 241.746 17.4688 241.795 18.2207L241.121 17.7227H244.908L244.358 18.6016ZM249.676 22.1099C248.948 22.1099 248.353 21.9243 247.889 21.5532C247.43 21.1821 247.2 20.6279 247.2 19.8906C247.2 19.5342 247.295 19.1753 247.486 18.814C247.676 18.4526 247.977 18.1523 248.387 17.9131C248.802 17.6689 249.344 17.5469 250.013 17.5469C250.34 17.542 250.64 17.5664 250.914 17.6201C251.187 17.6738 251.465 17.7642 251.749 17.8911L251.368 18.4038V17.6274C251.368 17.271 251.319 16.9805 251.221 16.7559C251.124 16.5264 250.977 16.3579 250.782 16.2505C250.586 16.1431 250.345 16.0894 250.057 16.0894C249.808 16.0894 249.51 16.1187 249.163 16.1772C248.816 16.231 248.409 16.3433 247.94 16.5142L247.654 15.0713C248.069 14.8955 248.519 14.7612 249.002 14.6685C249.49 14.5757 249.952 14.5293 250.386 14.5293C250.943 14.5293 251.436 14.6221 251.866 14.8076C252.295 14.9932 252.632 15.2983 252.876 15.7231C253.121 16.1431 253.243 16.7046 253.243 17.4077V22H251.653L251.353 21.0918L251.712 21.2822C251.57 21.4189 251.392 21.5532 251.177 21.6851C250.962 21.812 250.726 21.9146 250.467 21.9927C250.208 22.0708 249.944 22.1099 249.676 22.1099ZM250.027 20.7915C250.35 20.7915 250.657 20.7231 250.95 20.5864C251.243 20.4497 251.475 20.2959 251.646 20.125L251.368 20.938V18.4478L251.734 19.1875C251.446 19.0459 251.192 18.9507 250.972 18.9019C250.752 18.8481 250.533 18.8213 250.313 18.8213C249.917 18.8213 249.603 18.9141 249.368 19.0996C249.139 19.2803 249.024 19.5342 249.024 19.8613C249.024 20.1641 249.112 20.396 249.288 20.5571C249.463 20.7134 249.71 20.7915 250.027 20.7915ZM257.908 22.0732C257.068 22.0732 256.438 21.8218 256.019 21.3188C255.599 20.8159 255.389 20.0811 255.389 19.1143V15.5034L256.209 16.2505H254.122V14.6392H256.238L255.389 15.4595L255.704 12.6396H257.308V15.4595L256.487 14.6392H259.461V16.2505H256.487L257.308 15.5034V19.0703C257.308 19.5781 257.386 19.9297 257.542 20.125C257.698 20.3203 257.959 20.418 258.326 20.418C258.458 20.418 258.636 20.3984 258.86 20.3594C259.085 20.3203 259.275 20.2715 259.432 20.2129L259.651 21.7729C259.393 21.8608 259.109 21.9341 258.802 21.9927C258.494 22.0464 258.196 22.0732 257.908 22.0732ZM263.929 22.0952C262.815 22.0952 261.966 21.7803 261.38 21.1504C260.794 20.5205 260.501 19.5806 260.501 18.3306C260.501 17.6226 260.589 17.0269 260.765 16.5435C260.94 16.0552 261.182 15.6646 261.49 15.3716C261.802 15.0737 262.159 14.8589 262.559 14.7271C262.964 14.5952 263.392 14.5293 263.841 14.5293C264.427 14.5293 264.942 14.6514 265.386 14.8955C265.835 15.1396 266.185 15.4985 266.434 15.9722C266.688 16.4409 266.814 17.0195 266.814 17.708C266.814 17.8301 266.81 18.0107 266.8 18.25C266.795 18.4893 266.778 18.7163 266.749 18.9312H261.746L262.42 18.4404C262.41 18.9678 262.466 19.3853 262.588 19.6929C262.71 19.9956 262.889 20.2129 263.123 20.3447C263.362 20.4717 263.65 20.5352 263.987 20.5352C264.354 20.5352 264.688 20.4912 264.991 20.4033C265.298 20.3105 265.647 20.1763 266.038 20.0005L266.661 21.3921C266.26 21.6216 265.816 21.7974 265.328 21.9194C264.844 22.0366 264.378 22.0952 263.929 22.0952ZM264.983 18.6016V17.8618C265.027 17.2515 264.947 16.7803 264.742 16.4482C264.537 16.1113 264.217 15.9429 263.782 15.9429C263.284 15.9429 262.92 16.1357 262.691 16.5215C262.461 16.9023 262.371 17.4688 262.42 18.2207L261.746 17.7227H265.533L264.983 18.6016ZM276.365 22.0952C275.286 22.0952 274.454 21.7803 273.868 21.1504C273.287 20.5156 272.996 19.583 272.996 18.3525C272.996 17.0537 273.277 16.0918 273.838 15.4668C274.405 14.8418 275.237 14.5293 276.336 14.5293C277.176 14.5293 277.93 14.7246 278.599 15.1152V17.4956L276.966 17.6641V15.2104L277.852 16.6094C277.642 16.4678 277.396 16.3481 277.112 16.2505C276.834 16.1528 276.573 16.104 276.329 16.104C275.992 16.104 275.718 16.1821 275.508 16.3384C275.303 16.4897 275.152 16.729 275.054 17.0562C274.961 17.3833 274.915 17.8154 274.915 18.3525C274.915 19.1143 275.032 19.666 275.267 20.0078C275.506 20.3496 275.894 20.5205 276.431 20.5205C276.724 20.5205 277.012 20.4766 277.295 20.3887C277.579 20.2959 277.916 20.1592 278.306 19.9785L278.929 21.3921C278.528 21.6216 278.101 21.7974 277.647 21.9194C277.193 22.0366 276.766 22.0952 276.365 22.0952ZM282.181 22.1099C281.453 22.1099 280.857 21.9243 280.394 21.5532C279.935 21.1821 279.705 20.6279 279.705 19.8906C279.705 19.5342 279.8 19.1753 279.991 18.814C280.181 18.4526 280.481 18.1523 280.892 17.9131C281.307 17.6689 281.849 17.5469 282.518 17.5469C282.845 17.542 283.145 17.5664 283.418 17.6201C283.692 17.6738 283.97 17.7642 284.253 17.8911L283.873 18.4038V17.6274C283.873 17.271 283.824 16.9805 283.726 16.7559C283.628 16.5264 283.482 16.3579 283.287 16.2505C283.091 16.1431 282.85 16.0894 282.562 16.0894C282.312 16.0894 282.015 16.1187 281.668 16.1772C281.321 16.231 280.914 16.3433 280.445 16.5142L280.159 15.0713C280.574 14.8955 281.023 14.7612 281.507 14.6685C281.995 14.5757 282.457 14.5293 282.891 14.5293C283.448 14.5293 283.941 14.6221 284.371 14.8076C284.8 14.9932 285.137 15.2983 285.381 15.7231C285.625 16.1431 285.748 16.7046 285.748 17.4077V22H284.158L283.858 21.0918L284.217 21.2822C284.075 21.4189 283.897 21.5532 283.682 21.6851C283.467 21.812 283.23 21.9146 282.972 21.9927C282.713 22.0708 282.449 22.1099 282.181 22.1099ZM282.532 20.7915C282.854 20.7915 283.162 20.7231 283.455 20.5864C283.748 20.4497 283.98 20.2959 284.151 20.125L283.873 20.938V18.4478L284.239 19.1875C283.951 19.0459 283.697 18.9507 283.477 18.9019C283.257 18.8481 283.038 18.8213 282.818 18.8213C282.422 18.8213 282.107 18.9141 281.873 19.0996C281.644 19.2803 281.529 19.5342 281.529 19.8613C281.529 20.1641 281.617 20.396 281.792 20.5571C281.968 20.7134 282.215 20.7915 282.532 20.7915ZM287.491 22V14.6392H289.124L289.336 15.313C289.537 15.1616 289.781 15.0176 290.069 14.8809C290.357 14.7441 290.655 14.6294 290.962 14.5366C291.27 14.4438 291.548 14.3926 291.797 14.3828V16.375C291.426 16.375 291.058 16.4092 290.691 16.4775C290.33 16.541 290.005 16.6313 289.717 16.7485C289.429 16.8657 289.207 17.0049 289.051 17.166L289.41 16.1626V22H287.491ZM295.43 22.0952C294.532 22.0952 293.831 21.7876 293.328 21.1724C292.83 20.5571 292.581 19.605 292.581 18.3159C292.581 17.0366 292.811 16.0869 293.27 15.4668C293.733 14.8418 294.429 14.5293 295.357 14.5293C295.665 14.5293 295.999 14.5781 296.36 14.6758C296.722 14.7734 297.083 14.9272 297.444 15.1372L297.261 15.3057V12.0537H299.18V22H297.503L297.254 21.2749L297.466 21.4434C297.139 21.6973 296.79 21.8706 296.419 21.9634C296.053 22.0513 295.723 22.0952 295.43 22.0952ZM295.906 20.4473C296.248 20.4473 296.58 20.3643 296.902 20.1982C297.229 20.0273 297.603 19.7539 298.023 19.3779L297.261 20.5425V15.5986L298.038 17.2026C297.574 16.8267 297.164 16.563 296.807 16.4116C296.456 16.2554 296.128 16.1772 295.826 16.1772C295.352 16.1772 295.013 16.3457 294.808 16.6826C294.603 17.0195 294.5 17.5664 294.5 18.3232C294.5 19.0947 294.607 19.6416 294.822 19.9639C295.042 20.2861 295.403 20.4473 295.906 20.4473Z" fill="#918E8E"/>
</g>
<defs>
<filter id="filter0_i_720_10034" x="0" y="0" width="501" height="36" filterUnits="userSpaceOnUse" color-interpolation-filters="sRGB">
<feFlood flood-opacity="0" result="BackgroundImageFix"/>
<feBlend mode="normal" in="SourceGraphic" in2="BackgroundImageFix" result="shape"/>
<feColorMatrix in="SourceAlpha" type="matrix" values="0 0 0 0 0 0 0 0 0 0 0 0 0 0 0 0 0 0 127 0" result="hardAlpha"/>
<feOffset/>
<feGaussianBlur stdDeviation="5"/>
<feComposite in2="hardAlpha" operator="arithmetic" k2="-1" k3="1"/>
<feColorMatrix type="matrix" values="0 0 0 0 0 0 0 0 0 0 0 0 0 0 0 0 0 0 0.05 0"/>
<feBlend mode="normal" in2="shape" result="effect1_innerShadow_720_10034"/>
</filter>
</defs>
</svg>
