<svg width="50" height="50" viewBox="0 0 50 50" fill="none" xmlns="http://www.w3.org/2000/svg">
<path d="M25.5 27C26.3284 27 27 26.3284 27 25.5C27 24.6716 26.3284 24 25.5 24C24.6716 24 24 24.6716 24 25.5C24 26.3284 24.6716 27 25.5 27Z" fill="#918E8E" stroke="#918E8E" stroke-width="2" stroke-linecap="round" stroke-linejoin="round"/>
<path d="M35.5 27C36.3284 27 37 26.3284 37 25.5C37 24.6716 36.3284 24 35.5 24C34.6716 24 34 24.6716 34 25.5C34 26.3284 34.6716 27 35.5 27Z" fill="#918E8E" stroke="#918E8E" stroke-width="2" stroke-linecap="round" stroke-linejoin="round"/>
<path d="M14.5 27C15.3284 27 16 26.3284 16 25.5C16 24.6716 15.3284 24 14.5 24C13.6716 24 13 24.6716 13 25.5C13 26.3284 13.6716 27 14.5 27Z" fill="#918E8E" stroke="#918E8E" stroke-width="2" stroke-linecap="round" stroke-linejoin="round"/>
</svg>
