<svg width="100" height="129" viewBox="0 0 100 129" fill="none" xmlns="http://www.w3.org/2000/svg">
<rect width="100" height="129" rx="10" fill="#FFC86F"/>
<path d="M21.4531 34.293C20.7891 34.293 20.0859 34.2279 19.3438 34.0977C18.6016 33.9674 17.931 33.7721 17.332 33.5117L18.0156 30.4648C18.4974 30.6341 18.9987 30.7773 19.5195 30.8945C20.0534 30.9987 20.5417 31.0508 20.9844 31.0508C21.6094 31.0508 22.1302 30.9271 22.5469 30.6797C22.9766 30.4193 23.2956 30.0026 23.5039 29.4297C23.7253 28.8438 23.8359 28.069 23.8359 27.1055V10.9141L24.7734 12.125H18.6016V8.92188H27.7031V27.0859C27.7031 28.4792 27.5404 29.6445 27.2148 30.582C26.8893 31.5195 26.4336 32.2617 25.8477 32.8086C25.2747 33.3424 24.6107 33.7266 23.8555 33.9609C23.1133 34.1823 22.3125 34.293 21.4531 34.293ZM38.8117 34.293C37.5617 34.293 36.4875 34.0521 35.5891 33.5703C34.7036 33.0755 34.0201 32.3268 33.5383 31.3242C33.0695 30.3216 32.8352 29.0521 32.8352 27.5156V14.5664H36.6438V27.0469C36.6438 28.4792 36.8651 29.5078 37.3078 30.1328C37.7505 30.7578 38.5383 31.0703 39.6711 31.0703C40.4654 31.0703 41.3247 30.9466 42.2492 30.6992C43.1737 30.4388 44.1503 29.957 45.1789 29.2539L44.3586 31.4805V14.5664H48.1672V34H45.0422L44.632 32.75C43.4081 33.349 42.3729 33.7591 41.5266 33.9805C40.6802 34.1888 39.7753 34.293 38.8117 34.293ZM59.2562 34.2344C58.1755 34.2344 57.0167 34.0911 55.7797 33.8047C54.5557 33.5182 53.3904 33.0625 52.2836 32.4375L53.3773 29.5273C54.2628 30.0221 55.2328 30.4193 56.2875 30.7188C57.3552 31.0182 58.3318 31.168 59.2172 31.168C60.2979 31.168 61.1443 30.9792 61.7562 30.6016C62.3812 30.2109 62.6937 29.5208 62.6937 28.5312C62.6937 27.9193 62.544 27.418 62.2445 27.0273C61.9581 26.6367 61.4307 26.3242 60.6625 26.0898L57.2055 25.1328C55.8513 24.7292 54.7445 24.1172 53.8852 23.2969C53.0388 22.4766 52.6156 21.3307 52.6156 19.8594C52.6156 18.5703 52.9216 17.5156 53.5336 16.6953C54.1456 15.875 54.9854 15.2695 56.0531 14.8789C57.1208 14.4753 58.3318 14.2734 59.6859 14.2734C60.6234 14.2734 61.6 14.3776 62.6156 14.5859C63.6443 14.7943 64.5948 15.1068 65.4672 15.5234L64.3539 18.375C63.5857 18.0495 62.7784 17.7956 61.932 17.6133C61.0857 17.418 60.3044 17.3203 59.5883 17.3203C58.5206 17.3203 57.6937 17.5156 57.1078 17.9062C56.5219 18.2839 56.2289 18.8893 56.2289 19.7227C56.2289 20.3607 56.4112 20.8424 56.7758 21.168C57.1404 21.4935 57.7458 21.7865 58.5922 22.0469L61.7172 22.9453C62.6286 23.2057 63.4294 23.5638 64.1195 24.0195C64.8096 24.4753 65.3435 25.0612 65.7211 25.7773C66.1117 26.4805 66.307 27.3464 66.307 28.375C66.307 29.7161 66.0076 30.8229 65.4086 31.6953C64.8096 32.5547 63.9828 33.1927 62.9281 33.6094C61.8734 34.026 60.6495 34.2344 59.2562 34.2344ZM76.6148 34.1953C74.5966 34.1953 73.0862 33.6029 72.0836 32.418C71.094 31.2201 70.5992 29.3971 70.5992 26.9492V16.207L72.1227 17.6914H67.4156V14.5664H72.2008L70.5992 16.0898L71.2828 9.15625H74.4078V16.0898L72.8648 14.5664H80.2672V17.6914H72.8648L74.4078 16.207V26.9102C74.4078 28.4336 74.6292 29.4948 75.0719 30.0938C75.5146 30.6797 76.2958 30.9727 77.4156 30.9727C77.8193 30.9727 78.288 30.9271 78.8219 30.8359C79.3688 30.7448 79.844 30.6341 80.2477 30.5039L80.6773 33.5703C80.0393 33.7526 79.3622 33.9023 78.6461 34.0195C77.943 34.1367 77.2659 34.1953 76.6148 34.1953ZM18.4883 56V44.2227H21.1016L21.4414 45.3008C21.7617 45.0586 22.1523 44.8281 22.6133 44.6094C23.0742 44.3906 23.5508 44.207 24.043 44.0586C24.5352 43.9102 24.9805 43.8281 25.3789 43.8125V47C24.7852 47 24.1953 47.0547 23.6094 47.1641C23.0312 47.2656 22.5117 47.4102 22.0508 47.5977C21.5898 47.7852 21.2344 48.0078 20.9844 48.2656L21.5586 46.6602V56H18.4883ZM31.9172 56.1523C30.1359 56.1523 28.7766 55.6484 27.8391 54.6406C26.9016 53.6328 26.4328 52.1289 26.4328 50.1289C26.4328 48.9961 26.5734 48.043 26.8547 47.2695C27.1359 46.4883 27.5227 45.8633 28.0148 45.3945C28.5148 44.918 29.0852 44.5742 29.7258 44.3633C30.3742 44.1523 31.0578 44.0469 31.7766 44.0469C32.7141 44.0469 33.5383 44.2422 34.2492 44.6328C34.968 45.0234 35.5266 45.5977 35.925 46.3555C36.3313 47.1055 36.5344 48.0312 36.5344 49.1328C36.5344 49.3281 36.5266 49.6172 36.5109 50C36.5031 50.3828 36.4758 50.7461 36.4289 51.0898H28.425L29.5031 50.3047C29.4875 51.1484 29.5773 51.8164 29.7727 52.3086C29.968 52.793 30.2531 53.1406 30.6281 53.3516C31.0109 53.5547 31.4719 53.6562 32.0109 53.6562C32.5969 53.6562 33.132 53.5859 33.6164 53.4453C34.1086 53.2969 34.6672 53.082 35.2922 52.8008L36.2883 55.0273C35.6477 55.3945 34.9367 55.6758 34.1555 55.8711C33.382 56.0586 32.6359 56.1523 31.9172 56.1523ZM33.6047 50.5625V49.3789C33.675 48.4023 33.5461 47.6484 33.218 47.1172C32.8898 46.5781 32.3781 46.3086 31.6828 46.3086C30.8859 46.3086 30.3039 46.6172 29.9367 47.2344C29.5695 47.8438 29.425 48.75 29.5031 49.9531L28.425 49.1562H34.4836L33.6047 50.5625ZM38.7602 60.5586V44.2227H41.432L41.6781 44.9375C42.2016 44.6406 42.7445 44.418 43.307 44.2695C43.8773 44.1211 44.3969 44.0469 44.8656 44.0469C46.3578 44.0469 47.4711 44.5469 48.2055 45.5469C48.9398 46.5391 49.307 48.0586 49.307 50.1055C49.307 52.168 48.9086 53.6914 48.1117 54.6758C47.3148 55.6602 46.1938 56.1523 44.7484 56.1523C44.2875 56.1523 43.7914 56.0898 43.2602 55.9648C42.7289 55.832 42.2523 55.6211 41.8305 55.332V60.5586H38.7602ZM41.8305 54.6992L40.6117 51.8047C41.2836 52.4062 41.8773 52.8438 42.393 53.1172C42.9164 53.3828 43.4516 53.5156 43.9984 53.5156C44.8031 53.5156 45.3773 53.2578 45.7211 52.7422C46.0648 52.2266 46.2367 51.3516 46.2367 50.1172C46.2367 48.9062 46.0727 48.0312 45.7445 47.4922C45.4164 46.9531 44.8734 46.6836 44.1156 46.6836C43.6313 46.6836 43.1078 46.8086 42.5453 47.0586C41.9828 47.3008 41.3305 47.7227 40.5883 48.3242L41.8305 45.8867V54.6992ZM56.5719 56.1523C54.7906 56.1523 53.4313 55.6484 52.4938 54.6406C51.5563 53.6328 51.0875 52.1289 51.0875 50.1289C51.0875 48.9961 51.2281 48.043 51.5094 47.2695C51.7906 46.4883 52.1773 45.8633 52.6695 45.3945C53.1695 44.918 53.7398 44.5742 54.3805 44.3633C55.0289 44.1523 55.7125 44.0469 56.4313 44.0469C57.3688 44.0469 58.193 44.2422 58.9039 44.6328C59.6227 45.0234 60.1813 45.5977 60.5797 46.3555C60.9859 47.1055 61.1891 48.0312 61.1891 49.1328C61.1891 49.3281 61.1813 49.6172 61.1656 50C61.1578 50.3828 61.1305 50.7461 61.0836 51.0898H53.0797L54.1578 50.3047C54.1422 51.1484 54.232 51.8164 54.4273 52.3086C54.6227 52.793 54.9078 53.1406 55.2828 53.3516C55.6656 53.5547 56.1266 53.6562 56.6656 53.6562C57.2516 53.6562 57.7867 53.5859 58.2711 53.4453C58.7633 53.2969 59.3219 53.082 59.9469 52.8008L60.943 55.0273C60.3023 55.3945 59.5914 55.6758 58.8102 55.8711C58.0367 56.0586 57.2906 56.1523 56.5719 56.1523ZM58.2594 50.5625V49.3789C58.3297 48.4023 58.2008 47.6484 57.8727 47.1172C57.5445 46.5781 57.0328 46.3086 56.3375 46.3086C55.5406 46.3086 54.9586 46.6172 54.5914 47.2344C54.2242 47.8438 54.0797 48.75 54.1578 49.9531L53.0797 49.1562H59.1383L58.2594 50.5625ZM66.5672 56.1758C65.4031 56.1758 64.45 55.8789 63.7078 55.2852C62.9734 54.6914 62.6063 53.8047 62.6063 52.625C62.6063 52.0547 62.7586 51.4805 63.0633 50.9023C63.368 50.3242 63.8484 49.8438 64.5047 49.4609C65.1688 49.0703 66.0359 48.875 67.1063 48.875C67.6297 48.8672 68.1102 48.9062 68.5477 48.9922C68.9852 49.0781 69.4305 49.2227 69.8836 49.4258L69.2742 50.2461V49.0039C69.2742 48.4336 69.1961 47.9688 69.0398 47.6094C68.8836 47.2422 68.6492 46.9727 68.3367 46.8008C68.0242 46.6289 67.6375 46.543 67.1766 46.543C66.7781 46.543 66.3016 46.5898 65.7469 46.6836C65.1922 46.7695 64.5398 46.9492 63.7898 47.2227L63.3328 44.9141C63.9969 44.6328 64.7156 44.418 65.4891 44.2695C66.2703 44.1211 67.0086 44.0469 67.7039 44.0469C68.5945 44.0469 69.3836 44.1953 70.0711 44.4922C70.7586 44.7891 71.2977 45.2773 71.6883 45.957C72.0789 46.6289 72.2742 47.5273 72.2742 48.6523V56H69.7313L69.2508 54.5469L69.825 54.8516C69.5984 55.0703 69.3133 55.2852 68.9695 55.4961C68.6258 55.6992 68.2469 55.8633 67.8328 55.9883C67.4188 56.1133 66.9969 56.1758 66.5672 56.1758ZM67.1297 54.0664C67.6453 54.0664 68.1375 53.957 68.6063 53.7383C69.075 53.5195 69.4461 53.2734 69.7195 53L69.2742 54.3008V50.3164L69.8602 51.5C69.3992 51.2734 68.993 51.1211 68.6414 51.043C68.2898 50.957 67.9383 50.9141 67.5867 50.9141C66.9539 50.9141 66.45 51.0625 66.075 51.3594C65.7078 51.6484 65.5242 52.0547 65.5242 52.5781C65.5242 53.0625 65.6648 53.4336 65.9461 53.6914C66.2273 53.9414 66.6219 54.0664 67.1297 54.0664ZM79.5391 56.1172C78.1953 56.1172 77.1875 55.7148 76.5156 54.9102C75.8438 54.1055 75.5078 52.9297 75.5078 51.3828V45.6055L76.8203 46.8008H73.4805V44.2227H76.8672L75.5078 45.5352L76.0117 41.0234H78.5781V45.5352L77.2656 44.2227H82.0234V46.8008H77.2656L78.5781 45.6055V51.3125C78.5781 52.125 78.7031 52.6875 78.9531 53C79.2031 53.3125 79.6211 53.4688 80.207 53.4688C80.418 53.4688 80.7031 53.4375 81.0625 53.375C81.4219 53.3125 81.7266 53.2344 81.9766 53.1406L82.3281 55.6367C81.9141 55.7773 81.4609 55.8945 80.9688 55.9883C80.4766 56.0742 80 56.1172 79.5391 56.1172Z" fill="white"/>
<path d="M60.4167 73.1667L68.7501 81.5001L60.4167 89.8334" stroke="white" stroke-width="3" stroke-linecap="round" stroke-linejoin="round"/>
<path d="M31.25 91.9167V89.8333C31.25 87.6232 32.128 85.5036 33.6908 83.9408C35.2536 82.378 37.3732 81.5 39.5833 81.5H68.75" stroke="white" stroke-width="3" stroke-linecap="round" stroke-linejoin="round"/>
<path d="M39.5833 114.833L31.25 106.5L39.5833 98.1667" stroke="white" stroke-width="3" stroke-linecap="round" stroke-linejoin="round"/>
<path d="M68.75 96.0833V98.1666C68.75 100.377 67.872 102.496 66.3092 104.059C64.7464 105.622 62.6268 106.5 60.4167 106.5H31.25" stroke="white" stroke-width="3" stroke-linecap="round" stroke-linejoin="round"/>
</svg>
