<svg width="50" height="51" viewBox="0 0 50 51" fill="none" xmlns="http://www.w3.org/2000/svg">
<circle cx="25" cy="25.2964" r="25" fill="white" fill-opacity="0.7"/>
<rect x="15" y="15" width="20" height="20" rx="2" stroke="#656565" stroke-width="2"/>
<line x1="15" y1="19" x2="10" y2="19" stroke="#656565" stroke-width="2" stroke-linecap="round"/>
<line x1="19" y1="15" x2="19" y2="11" stroke="#656565" stroke-width="2" stroke-linecap="round"/>
<line x1="23" y1="15" x2="23" y2="11" stroke="#656565" stroke-width="2" stroke-linecap="round"/>
<line x1="27" y1="15" x2="27" y2="11" stroke="#656565" stroke-width="2" stroke-linecap="round"/>
<line x1="31" y1="15" x2="31" y2="11" stroke="#656565" stroke-width="2" stroke-linecap="round"/>
<line x1="19" y1="39" x2="19" y2="35" stroke="#656565" stroke-width="2" stroke-linecap="round"/>
<line x1="23" y1="39" x2="23" y2="35" stroke="#656565" stroke-width="2" stroke-linecap="round"/>
<line x1="27" y1="39" x2="27" y2="35" stroke="#656565" stroke-width="2" stroke-linecap="round"/>
<line x1="31" y1="39" x2="31" y2="35" stroke="#656565" stroke-width="2" stroke-linecap="round"/>
<line x1="12" y1="23" x2="10" y2="23" stroke="#656565" stroke-width="2" stroke-linecap="round"/>
<line x1="12" y1="27" x2="10" y2="27" stroke="#656565" stroke-width="2" stroke-linecap="round"/>
<line x1="15" y1="31" x2="10" y2="31" stroke="#656565" stroke-width="2" stroke-linecap="round"/>
<line x1="40" y1="19" x2="35" y2="19" stroke="#656565" stroke-width="2" stroke-linecap="round"/>
<line x1="40" y1="23" x2="38" y2="23" stroke="#656565" stroke-width="2" stroke-linecap="round"/>
<line x1="40" y1="27" x2="38" y2="27" stroke="#656565" stroke-width="2" stroke-linecap="round"/>
<line x1="40" y1="31" x2="35" y2="31" stroke="#656565" stroke-width="2" stroke-linecap="round"/>
<path d="M20 30L23 20" stroke="#656565" stroke-width="2" stroke-linecap="round"/>
<path d="M26 30L23 20" stroke="#656565" stroke-width="2" stroke-linecap="round"/>
<path d="M29 30V20" stroke="#656565" stroke-width="2" stroke-linecap="round"/>
<path d="M21 27H25" stroke="#656565" stroke-width="2" stroke-linecap="round"/>
</svg>
