<svg width="50" height="51" viewBox="0 0 50 51" fill="none" xmlns="http://www.w3.org/2000/svg">
<circle cx="25" cy="25.1852" r="25" fill="white" fill-opacity="0.7"/>
<path d="M16.6667 38.3334H33.3334" stroke="#656565" stroke-width="2" stroke-linecap="round" stroke-linejoin="round"/>
<path d="M21.6667 38.3335C30.8334 34.1668 23 27.6668 26.6667 21.6668" stroke="#656565" stroke-width="2" stroke-linecap="round" stroke-linejoin="round"/>
<path d="M20.8334 20.6668C22.6667 22.0001 23.8334 24.3335 24.6667 26.8335C21.3334 27.5001 18.8334 27.5001 16.6667 26.3335C14.6667 25.3335 12.8334 23.1668 11.6667 19.3335C16.3334 18.5001 19 19.3335 20.8334 20.6668Z" stroke="#656565" stroke-width="2" stroke-linecap="round" stroke-linejoin="round"/>
<path d="M28.5 15.0001C27.2293 16.9861 26.5901 19.3104 26.6667 21.6668C29.8333 21.5001 32.1667 20.6668 33.8333 19.3335C35.5 17.6668 36.5 15.5001 36.6667 11.6668C32.1667 11.8335 30 13.3335 28.5 15.0001Z" stroke="#656565" stroke-width="2" stroke-linecap="round" stroke-linejoin="round"/>
</svg>
