<svg width="270" height="540" viewBox="0 0 270 540" fill="none" xmlns="http://www.w3.org/2000/svg">
<path d="M8.67844e-05 112.5C0.0266026 103.501 -1.74671 94.5868 -5.21554 86.2829C-8.68438 77.979 -13.7787 70.4525 -20.1989 64.1462C-26.619 57.8399 -34.2354 52.8811 -42.6001 49.5614C-50.9648 46.2417 -59.9089 44.6281 -68.9063 44.8157C-77.9037 45.0032 -86.7727 46.988 -94.9918 50.6534C-103.211 54.3188 -110.614 59.5907 -116.766 66.159C-122.918 72.7274 -127.694 80.4596 -130.814 88.9008C-133.934 97.3421 -135.334 106.322 -134.932 115.312C-148.158 118.713 -160.436 125.079 -170.837 133.927C-181.238 142.775 -189.49 153.875 -194.966 166.384C-200.442 178.893 -203 192.485 -202.446 206.129C-201.892 219.774 -198.24 233.113 -191.767 245.137C-203.148 254.383 -212.098 266.27 -217.837 279.763C-223.577 293.257 -225.932 307.948 -224.699 322.56C-223.466 337.171 -218.682 351.26 -210.762 363.6C-202.842 375.941 -192.027 386.16 -179.257 393.367C-180.834 405.568 -179.893 417.962 -176.492 429.784C-173.092 441.607 -167.303 452.606 -159.485 462.104C-151.666 471.602 -141.984 479.396 -131.035 485.005C-120.086 490.613 -108.104 493.918 -95.8279 494.715C-83.552 495.512 -71.243 493.783 -59.6612 489.636C-48.0794 485.489 -37.4707 479.012 -28.4903 470.604C-19.5099 462.197 -12.3485 452.038 -7.44824 440.754C-2.54801 429.47 -0.0130428 417.302 8.67844e-05 405V112.5Z" stroke="#6F74FF" stroke-width="20" stroke-linecap="round" stroke-linejoin="round"/>
<path d="M-0.000195258 112.5C-0.0267111 103.501 1.7466 94.5868 5.21544 86.2829C8.68427 77.979 13.7786 70.4525 20.1987 64.1462C26.6189 57.8399 34.2353 52.8811 42.6 49.5614C50.9647 46.2417 59.9088 44.6281 68.9062 44.8157C77.9036 45.0032 86.7726 46.988 94.9917 50.6534C103.211 54.3188 110.614 59.5907 116.766 66.159C122.918 72.7274 127.694 80.4596 130.814 88.9008C133.933 97.3421 135.334 106.322 134.932 115.312C148.158 118.713 160.436 125.079 170.837 133.927C181.238 142.775 189.489 153.875 194.966 166.384C200.442 178.893 203 192.485 202.446 206.129C201.892 219.774 198.24 233.113 191.767 245.137C203.148 254.383 212.098 266.27 217.837 279.763C223.577 293.257 225.932 307.948 224.699 322.56C223.466 337.171 218.681 351.26 210.762 363.6C202.842 375.941 192.027 386.16 179.257 393.367C180.834 405.568 179.893 417.962 176.492 429.784C173.092 441.607 167.303 452.606 159.485 462.104C151.666 471.602 141.984 479.396 131.035 485.005C120.086 490.613 108.104 493.918 95.8278 494.715C83.5519 495.512 71.2429 493.783 59.6611 489.636C48.0793 485.489 37.4706 479.012 28.4902 470.604C19.5098 462.197 12.3484 452.038 7.44813 440.754C2.5479 429.47 0.0129343 417.302 -0.000195258 405V112.5Z" stroke="#6F74FF" stroke-width="20" stroke-linecap="round" stroke-linejoin="round"/>
<path d="M67.5 292.5C48.61 285.855 32.1147 273.757 20.0998 257.738C8.08498 241.718 1.09021 222.495 0 202.5C-1.09021 222.495 -8.08498 241.718 -20.0998 257.738C-32.1147 273.757 -48.61 285.855 -67.5 292.5" stroke="#6F74FF" stroke-width="20" stroke-linecap="round" stroke-linejoin="round"/>
<path d="M125.978 146.25C131.423 136.813 134.503 126.198 134.955 115.312" stroke="#6F74FF" stroke-width="20" stroke-linecap="round" stroke-linejoin="round"/>
<path d="M178.605 236.25C183.247 238.826 187.651 241.808 191.768 245.16" stroke="#6F74FF" stroke-width="20" stroke-linecap="round" stroke-linejoin="round"/>
<path d="M179.257 393.39C165.751 401.008 150.506 405.007 135 405" stroke="#6F74FF" stroke-width="20" stroke-linecap="round" stroke-linejoin="round"/>
</svg>
