<svg width="270" height="540" viewBox="0 0 270 540" fill="none" xmlns="http://www.w3.org/2000/svg">
<path d="M270 112.5C270.027 103.501 268.253 94.5868 264.784 86.2829C261.316 77.979 256.221 70.4525 249.801 64.1462C243.381 57.8399 235.765 52.8811 227.4 49.5614C219.035 46.2417 210.091 44.6281 201.094 44.8157C192.096 45.0032 183.227 46.988 175.008 50.6534C166.789 54.3188 159.386 59.5907 153.234 66.159C147.082 72.7274 142.306 80.4596 139.186 88.9008C136.066 97.3421 134.666 106.322 135.068 115.312C121.842 118.713 109.564 125.079 99.1628 133.927C88.7617 142.775 80.5105 153.875 75.0341 166.384C69.5577 178.893 66.9997 192.485 67.5538 206.129C68.108 219.774 71.7598 233.113 78.2326 245.137C66.8516 254.383 57.9022 266.27 52.1627 279.763C46.4233 293.257 44.0676 307.948 45.3008 322.56C46.5339 337.171 51.3185 351.26 59.2382 363.6C67.158 375.941 77.973 386.16 90.7426 393.367C89.1657 405.568 90.1067 417.962 93.5075 429.784C96.9084 441.607 102.697 452.606 110.515 462.104C118.334 471.602 128.016 479.396 138.965 485.005C149.914 490.613 161.896 493.918 174.172 494.715C186.448 495.512 198.757 493.783 210.339 489.636C221.921 485.489 232.529 479.012 241.51 470.604C250.49 462.197 257.652 452.038 262.552 440.754C267.452 429.47 269.987 417.302 270 405V112.5Z" stroke="#6F74FF" stroke-width="20" stroke-linecap="round" stroke-linejoin="round"/>
<path d="M270 112.5C269.973 103.501 271.747 94.5868 275.215 86.2829C278.684 77.979 283.779 70.4525 290.199 64.1462C296.619 57.8399 304.235 52.8811 312.6 49.5614C320.965 46.2417 329.909 44.6281 338.906 44.8157C347.904 45.0032 356.773 46.988 364.992 50.6534C373.211 54.3188 380.614 59.5907 386.766 66.159C392.918 72.7274 397.694 80.4596 400.814 88.9008C403.933 97.3421 405.334 106.322 404.932 115.312C418.158 118.713 430.436 125.079 440.837 133.927C451.238 142.775 459.489 153.875 464.966 166.384C470.442 178.893 473 192.485 472.446 206.129C471.892 219.774 468.24 233.113 461.767 245.137C473.148 254.383 482.098 266.27 487.837 279.763C493.577 293.257 495.932 307.948 494.699 322.56C493.466 337.171 488.681 351.26 480.762 363.6C472.842 375.941 462.027 386.16 449.257 393.367C450.834 405.568 449.893 417.962 446.492 429.784C443.092 441.607 437.303 452.606 429.485 462.104C421.666 471.602 411.984 479.396 401.035 485.005C390.086 490.613 378.104 493.918 365.828 494.715C353.552 495.512 341.243 493.783 329.661 489.636C318.079 485.489 307.471 479.012 298.49 470.604C289.51 462.197 282.348 452.038 277.448 440.754C272.548 429.47 270.013 417.302 270 405V112.5Z" stroke="#6F74FF" stroke-width="20" stroke-linecap="round" stroke-linejoin="round"/>
<path d="M337.5 292.5C318.61 285.855 302.115 273.757 290.1 257.738C278.085 241.718 271.09 222.495 270 202.5C268.91 222.495 261.915 241.718 249.9 257.738C237.885 273.757 221.39 285.855 202.5 292.5" stroke="#6F74FF" stroke-width="20" stroke-linecap="round" stroke-linejoin="round"/>
<path d="M135.067 115.312C135.512 126.197 138.585 136.811 144.022 146.25" stroke="#6F74FF" stroke-width="20" stroke-linecap="round" stroke-linejoin="round"/>
<path d="M78.2324 245.16C82.3486 241.808 86.7532 238.826 91.3949 236.25" stroke="#6F74FF" stroke-width="20" stroke-linecap="round" stroke-linejoin="round"/>
<path d="M135 405C119.494 405.007 104.249 401.008 90.7427 393.39" stroke="#6F74FF" stroke-width="20" stroke-linecap="round" stroke-linejoin="round"/>
</svg>
