<svg width="50" height="51" viewBox="0 0 50 51" fill="none" xmlns="http://www.w3.org/2000/svg">
<circle cx="25" cy="25.2964" r="25" fill="white" fill-opacity="0.7"/>
<path d="M24.2929 18.6213C24.6834 18.2308 25.3166 18.2308 25.7071 18.6213L26.4142 17.9142L25.7071 18.6213L33.7071 26.6213C33.8946 26.8089 34 27.0632 34 27.3284V35.5C34 36.0523 33.5523 36.5 33 36.5H30C29.4477 36.5 29 36.0523 29 35.5V30.5C29 29.3954 28.1046 28.5 27 28.5H23C21.8954 28.5 21 29.3954 21 30.5V35.5C21 36.0523 20.5523 36.5 20 36.5H17C16.4477 36.5 16 36.0523 16 35.5V27.3284C16 27.0632 16.1054 26.8089 16.2929 26.6213L24.2929 18.6213Z" stroke="#656565" stroke-width="2"/>
<path d="M14 24.3661C14 24.1317 14.0931 23.9069 14.2589 23.7411L22.5251 15.4749C23.892 14.108 26.108 14.108 27.4749 15.4749L35.7411 23.7411C35.9069 23.9069 36 24.1317 36 24.3661C36 25.1536 35.0479 25.5479 34.4911 24.9911L26.7678 17.2677C25.7915 16.2914 24.2085 16.2914 23.2322 17.2677L15.5089 24.9911C14.9521 25.5479 14 25.1536 14 24.3661Z" fill="#656565"/>
</svg>
