<svg width="56" height="56" viewBox="0 0 56 56" fill="none" xmlns="http://www.w3.org/2000/svg">
<g filter="url(#filter0_d_1779_12892)">
<circle cx="28" cy="28" r="25" fill="white"/>
</g>
<path d="M27.2929 21.3249C27.6834 20.9344 28.3166 20.9344 28.7071 21.3249L36.7071 29.3249C36.8946 29.5125 37 29.7668 37 30.032V38.2036C37 38.7559 36.5523 39.2036 36 39.2036H33C32.4477 39.2036 32 38.7559 32 38.2036V33.2036C32 32.099 31.1046 31.2036 30 31.2036H26C24.8954 31.2036 24 32.099 24 33.2036V38.2036C24 38.7559 23.5523 39.2036 23 39.2036H20C19.4477 39.2036 19 38.7559 19 38.2036V30.032C19 29.7668 19.1054 29.5125 19.2929 29.3249L18.5945 28.6266L19.2929 29.3249L27.2929 21.3249Z" stroke="#656565" stroke-width="2"/>
<path d="M17 27.0697C17 26.8353 17.0931 26.6105 17.2589 26.4447L25.5251 18.1785C26.892 16.8117 29.108 16.8117 30.4749 18.1785L38.7411 26.4447C38.9069 26.6105 39 26.8353 39 27.0697C39 27.8572 38.0479 28.2515 37.4911 27.6947L29.7678 19.9713C28.7915 18.995 27.2085 18.995 26.2322 19.9713L18.5089 27.6947C17.9521 28.2515 17 27.8572 17 27.0697Z" fill="#656565"/>
<defs>
<filter id="filter0_d_1779_12892" x="0" y="0" width="56" height="56" filterUnits="userSpaceOnUse" color-interpolation-filters="sRGB">
<feFlood flood-opacity="0" result="BackgroundImageFix"/>
<feColorMatrix in="SourceAlpha" type="matrix" values="0 0 0 0 0 0 0 0 0 0 0 0 0 0 0 0 0 0 127 0" result="hardAlpha"/>
<feOffset/>
<feGaussianBlur stdDeviation="1.5"/>
<feComposite in2="hardAlpha" operator="out"/>
<feColorMatrix type="matrix" values="0 0 0 0 0 0 0 0 0 0 0 0 0 0 0 0 0 0 0.1 0"/>
<feBlend mode="normal" in2="BackgroundImageFix" result="effect1_dropShadow_1779_12892"/>
<feBlend mode="normal" in="SourceGraphic" in2="effect1_dropShadow_1779_12892" result="shape"/>
</filter>
</defs>
</svg>
