<svg width="71" height="70" viewBox="0 0 71 70" fill="none" xmlns="http://www.w3.org/2000/svg">
<rect x="1" y="0.5" width="69" height="69" rx="34.5" stroke="#E5E5E5"/>
<path d="M42.8335 22.1667H53.8335" stroke="#B0B0B0" stroke-width="2.33333" stroke-linecap="round" stroke-linejoin="round"/>
<path d="M48.3335 16.6667V27.6667" stroke="#B0B0B0" stroke-width="2.33333" stroke-linecap="round" stroke-linejoin="round"/>
<path d="M52 34.0833V47.8333C52 48.8058 51.6137 49.7384 50.9261 50.4261C50.2384 51.1137 49.3058 51.5 48.3333 51.5H22.6667C21.6942 51.5 20.7616 51.1137 20.0739 50.4261C19.3863 49.7384 19 48.8058 19 47.8333V22.1667C19 21.1942 19.3863 20.2616 20.0739 19.5739C20.7616 18.8863 21.6942 18.5 22.6667 18.5H36.4167" stroke="#E5E5E5" stroke-width="2.33333" stroke-linecap="round" stroke-linejoin="round"/>
<path d="M52 40.5L46.3423 34.8423C45.6547 34.155 44.7223 33.7688 43.75 33.7688C42.7777 33.7688 41.8453 34.155 41.1577 34.8423L24.5 51.5" stroke="#E5E5E5" stroke-width="2.33333" stroke-linecap="round" stroke-linejoin="round"/>
<path d="M30.0002 33.1666C32.0252 33.1666 33.6668 31.525 33.6668 29.5C33.6668 27.4749 32.0252 25.8333 30.0002 25.8333C27.9751 25.8333 26.3335 27.4749 26.3335 29.5C26.3335 31.525 27.9751 33.1666 30.0002 33.1666Z" stroke="#E5E5E5" stroke-width="2.33333" stroke-linecap="round" stroke-linejoin="round"/>
</svg>
