<svg width="64" height="64" viewBox="0 0 64 64" fill="none" xmlns="http://www.w3.org/2000/svg">
<path d="M31.9999 13.3334C32.003 12.2668 31.7928 11.2104 31.3817 10.2262C30.9706 9.24201 30.3668 8.34999 29.6059 7.60257C28.845 6.85516 27.9423 6.26745 26.951 5.874C25.9596 5.48056 24.8996 5.28932 23.8332 5.31155C22.7668 5.33378 21.7157 5.56902 20.7416 6.00343C19.7675 6.43784 18.89 7.06266 18.1609 7.84113C17.4318 8.6196 16.8658 9.53601 16.496 10.5365C16.1263 11.5369 15.9603 12.6012 16.0079 13.6667C14.4404 14.0698 12.9852 14.8242 11.7525 15.8729C10.5198 16.9216 9.54184 18.237 8.89279 19.7196C8.24373 21.2022 7.94057 22.8131 8.00624 24.4302C8.07192 26.0473 8.50472 27.6283 9.27187 29.0534C7.92302 30.1492 6.86234 31.558 6.18211 33.1572C5.50188 34.7564 5.22269 36.4976 5.36884 38.2294C5.51499 39.9611 6.08205 41.6309 7.02069 43.0934C7.95932 44.556 9.24111 45.7671 10.7545 46.6214C10.5677 48.0674 10.6792 49.5363 11.0822 50.9375C11.4853 52.3386 12.1713 53.6423 13.098 54.7679C14.0246 55.8936 15.1722 56.8173 16.4698 57.4821C17.7674 58.1468 19.1875 58.5385 20.6425 58.6329C22.0974 58.7274 23.5562 58.5225 24.9289 58.031C26.3016 57.5395 27.5589 56.7719 28.6232 55.7754C29.6876 54.779 30.5363 53.5749 31.1171 52.2376C31.6979 50.9002 31.9983 49.458 31.9999 48.0001V13.3334Z" stroke="#6F74FF" stroke-width="3" stroke-linecap="round" stroke-linejoin="round"/>
<path d="M32 13.3334C31.9969 12.2668 32.2071 11.2104 32.6182 10.2262C33.0293 9.24201 33.6331 8.34999 34.394 7.60257C35.1549 6.85516 36.0576 6.26745 37.0489 5.874C38.0403 5.48056 39.1004 5.28932 40.1667 5.31155C41.2331 5.33378 42.2842 5.56902 43.2583 6.00343C44.2324 6.43784 45.1099 7.06266 45.839 7.84113C46.5681 8.6196 47.1341 9.53601 47.5039 10.5365C47.8737 11.5369 48.0396 12.6012 47.992 13.6667C49.5595 14.0698 51.0147 14.8242 52.2474 15.8729C53.4801 16.9216 54.4581 18.237 55.1071 19.7196C55.7562 21.2022 56.0593 22.8131 55.9937 24.4302C55.928 26.0473 55.4952 27.6283 54.728 29.0534C56.0769 30.1492 57.1376 31.558 57.8178 33.1572C58.498 34.7564 58.7772 36.4976 58.6311 38.2294C58.4849 39.9611 57.9179 41.6309 56.9792 43.0934C56.0406 44.556 54.7588 45.7671 53.2454 46.6214C53.4323 48.0674 53.3207 49.5363 52.9177 50.9375C52.5146 52.3386 51.8286 53.6423 50.9019 54.7679C49.9753 55.8936 48.8277 56.8173 47.5301 57.4821C46.2325 58.1468 44.8124 58.5385 43.3574 58.6329C41.9025 58.7274 40.4437 58.5225 39.071 58.031C37.6983 57.5395 36.441 56.7719 35.3767 55.7754C34.3123 54.779 33.4636 53.5749 32.8828 52.2376C32.302 50.9002 32.0016 49.458 32 48.0001V13.3334Z" stroke="#6F74FF" stroke-width="3" stroke-linecap="round" stroke-linejoin="round"/>
<path d="M40 34.6667C37.7612 33.8791 35.8062 32.4453 34.3822 30.5467C32.9582 28.648 32.1292 26.3698 32 24C31.8708 26.3698 31.0418 28.648 29.6178 30.5467C28.1938 32.4453 26.2388 33.8791 24 34.6667" stroke="#6F74FF" stroke-width="3" stroke-linecap="round" stroke-linejoin="round"/>
<path d="M46.9307 17.3334C47.5761 16.215 47.9411 14.9569 47.9947 13.6667" stroke="#6F74FF" stroke-width="3" stroke-linecap="round" stroke-linejoin="round"/>
<path d="M16.0078 13.6667C16.0605 14.9567 16.4247 16.2147 17.0691 17.3334" stroke="#6F74FF" stroke-width="3" stroke-linecap="round" stroke-linejoin="round"/>
<path d="M9.27197 29.056C9.75981 28.6587 10.2818 28.3053 10.832 28" stroke="#6F74FF" stroke-width="3" stroke-linecap="round" stroke-linejoin="round"/>
<path d="M53.168 28C53.7181 28.3053 54.2401 28.6587 54.728 29.056" stroke="#6F74FF" stroke-width="3" stroke-linecap="round" stroke-linejoin="round"/>
<path d="M16.0002 48C14.1624 48.0009 12.3556 47.5269 10.7549 46.624" stroke="#6F74FF" stroke-width="3" stroke-linecap="round" stroke-linejoin="round"/>
<path d="M53.2453 46.624C51.6446 47.5269 49.8378 48.0009 48 48" stroke="#6F74FF" stroke-width="3" stroke-linecap="round" stroke-linejoin="round"/>
<path d="M6.5 40.5V31.5L9 29V20.5H55V29L58.5 32.5V40.5L54 47L52 54.5L45.5 58.5L36.5 57L32 52.5L27.5 57L21.5 59L13 55.5L10 47L6.5 40.5Z" fill="#6F74FF" fill-opacity="0.4"/>
</svg>
