<svg width="64" height="64" viewBox="0 0 64 64" fill="none" xmlns="http://www.w3.org/2000/svg">
<path d="M31.9999 13.3333C32.003 12.2667 31.7928 11.2103 31.3817 10.2261C30.9706 9.24195 30.3668 8.34993 29.6059 7.60251C28.845 6.8551 27.9423 6.26739 26.951 5.87394C25.9596 5.4805 24.8996 5.28926 23.8332 5.31149C22.7668 5.33372 21.7157 5.56896 20.7416 6.00337C19.7675 6.43778 18.89 7.0626 18.1609 7.84107C17.4318 8.61954 16.8658 9.53595 16.496 10.5364C16.1263 11.5368 15.9603 12.6011 16.0079 13.6667C14.4404 14.0697 12.9852 14.8241 11.7525 15.8728C10.5198 16.9215 9.54184 18.237 8.89279 19.7196C8.24373 21.2022 7.94057 22.813 8.00624 24.4302C8.07192 26.0473 8.50472 27.6282 9.27187 29.0533C7.92302 30.1491 6.86234 31.5579 6.18211 33.1572C5.50188 34.7564 5.22269 36.4976 5.36884 38.2293C5.51499 39.961 6.08205 41.6308 7.02069 43.0934C7.95932 44.556 9.24111 45.7671 10.7545 46.6213C10.5677 48.0673 10.6792 49.5362 11.0822 50.9374C11.4853 52.3386 12.1713 53.6422 13.098 54.7679C14.0246 55.8935 15.1722 56.8173 16.4698 57.482C17.7674 58.1468 19.1875 58.5385 20.6425 58.6329C22.0974 58.7273 23.5562 58.5224 24.9289 58.031C26.3016 57.5395 27.5589 56.7718 28.6232 55.7754C29.6876 54.7789 30.5363 53.5748 31.1171 52.2375C31.6979 50.9002 31.9983 49.458 31.9999 48V13.3333Z" stroke="#6F74FF" stroke-width="3" stroke-linecap="round" stroke-linejoin="round"/>
<path d="M32 13.3333C31.9969 12.2667 32.2071 11.2103 32.6182 10.2261C33.0293 9.24195 33.6331 8.34993 34.394 7.60251C35.1549 6.8551 36.0576 6.26739 37.0489 5.87394C38.0403 5.4805 39.1004 5.28926 40.1667 5.31149C41.2331 5.33372 42.2842 5.56896 43.2583 6.00337C44.2324 6.43778 45.1099 7.0626 45.839 7.84107C46.5681 8.61954 47.1341 9.53595 47.5039 10.5364C47.8737 11.5368 48.0396 12.6011 47.992 13.6667C49.5595 14.0697 51.0147 14.8241 52.2474 15.8728C53.4801 16.9215 54.4581 18.237 55.1071 19.7196C55.7562 21.2022 56.0593 22.813 55.9937 24.4302C55.928 26.0473 55.4952 27.6282 54.728 29.0533C56.0769 30.1491 57.1376 31.5579 57.8178 33.1572C58.498 34.7564 58.7772 36.4976 58.6311 38.2293C58.4849 39.961 57.9179 41.6308 56.9792 43.0934C56.0406 44.556 54.7588 45.7671 53.2454 46.6213C53.4323 48.0673 53.3207 49.5362 52.9177 50.9374C52.5146 52.3386 51.8286 53.6422 50.9019 54.7679C49.9753 55.8935 48.8277 56.8173 47.5301 57.482C46.2325 58.1468 44.8124 58.5385 43.3574 58.6329C41.9025 58.7273 40.4437 58.5224 39.071 58.031C37.6983 57.5395 36.441 56.7718 35.3767 55.7754C34.3123 54.7789 33.4636 53.5748 32.8828 52.2375C32.302 50.9002 32.0016 49.458 32 48V13.3333Z" stroke="#6F74FF" stroke-width="3" stroke-linecap="round" stroke-linejoin="round"/>
<path d="M40 34.6667C37.7612 33.8791 35.8062 32.4453 34.3822 30.5467C32.9582 28.648 32.1292 26.3698 32 24C31.8708 26.3698 31.0418 28.648 29.6178 30.5467C28.1938 32.4453 26.2388 33.8791 24 34.6667" stroke="#6F74FF" stroke-width="3" stroke-linecap="round" stroke-linejoin="round"/>
<path d="M46.9307 17.3333C47.5761 16.2149 47.9411 14.9568 47.9947 13.6667" stroke="#6F74FF" stroke-width="3" stroke-linecap="round" stroke-linejoin="round"/>
<path d="M16.0078 13.6667C16.0605 14.9566 16.4247 16.2146 17.0691 17.3333" stroke="#6F74FF" stroke-width="3" stroke-linecap="round" stroke-linejoin="round"/>
<path d="M9.27197 29.056C9.75981 28.6587 10.2818 28.3053 10.832 28" stroke="#6F74FF" stroke-width="3" stroke-linecap="round" stroke-linejoin="round"/>
<path d="M53.168 28C53.7181 28.3053 54.2401 28.6587 54.728 29.056" stroke="#6F74FF" stroke-width="3" stroke-linecap="round" stroke-linejoin="round"/>
<path d="M16.0002 48C14.1624 48.0009 12.3556 47.5269 10.7549 46.624" stroke="#6F74FF" stroke-width="3" stroke-linecap="round" stroke-linejoin="round"/>
<path d="M53.2453 46.624C51.6446 47.5269 49.8378 48.0009 48 48" stroke="#6F74FF" stroke-width="3" stroke-linecap="round" stroke-linejoin="round"/>
</svg>
