<svg width="50" height="51" viewBox="0 0 50 51" fill="none" xmlns="http://www.w3.org/2000/svg">
<circle cx="25" cy="25.0741" r="25" fill="white" fill-opacity="0.7"/>
<path d="M35 16.6665V13.3332C35 12.8912 34.8244 12.4673 34.5118 12.1547C34.1993 11.8421 33.7754 11.6665 33.3333 11.6665H15.8333C15.6786 11.6665 15.5269 11.7096 15.3952 11.791C15.2636 11.8724 15.1572 11.9888 15.088 12.1272C15.0188 12.2656 14.9895 12.4206 15.0034 12.5747C15.0173 12.7288 15.0738 12.8761 15.1667 12.9999L22.6667 22.9999C23.0994 23.5769 23.3333 24.2786 23.3333 24.9999C23.3333 25.7211 23.0994 26.4229 22.6667 26.9999L15.1667 36.9999C15.0738 37.1237 15.0173 37.2709 15.0034 37.425C14.9895 37.5792 15.0188 37.7341 15.088 37.8725C15.1572 38.011 15.2636 38.1274 15.3952 38.2087C15.5269 38.2901 15.6786 38.3332 15.8333 38.3332H33.3333C33.7754 38.3332 34.1993 38.1576 34.5118 37.845C34.8244 37.5325 35 37.1086 35 36.6665V33.3332" stroke="#656565" stroke-width="2" stroke-linecap="round" stroke-linejoin="round"/>
</svg>
