<svg width="117" height="56" viewBox="0 0 117 56" fill="none" xmlns="http://www.w3.org/2000/svg">
<g filter="url(#filter0_d_1971_159)">
<rect x="3" y="3" width="111" height="50" rx="25" fill="white" shape-rendering="crispEdges"/>
<circle cx="16.5" cy="16.5" r="15.5" transform="matrix(-1 0 0 1 44 11.5)" stroke="#656565" stroke-width="2"/>
<path d="M43 29V29C40.6788 29.9948 38.2263 30.6498 35.7182 30.9449L33.9551 31.1523C31.9879 31.3838 30.0059 31.4632 28.0266 31.3899L23.3483 31.2166C19.4732 31.0731 15.6443 30.3252 12 29V29" stroke="#656565" stroke-width="1.5"/>
<path d="M12 27V27C14.3212 26.0052 16.7737 25.3502 19.2818 25.0551L21.0449 24.8477C23.0121 24.6162 24.9941 24.5368 26.9734 24.6101L31.803 24.789C35.5885 24.9292 39.3454 25.5033 43 26.5V26.5" stroke="#656565" stroke-width="1.5" stroke-dasharray="3 3"/>
<path d="M28.5 12.5V12.5C29.4948 14.8212 30.1498 17.2737 30.4449 19.7818L30.6523 21.5449C30.8838 23.5121 30.9632 25.4941 30.8899 27.4734L30.7166 32.1517C30.5731 36.0268 29.8252 39.8557 28.5 43.5V43.5" stroke="#656565" stroke-width="1.5"/>
<path d="M26.5 43.5V43.5C25.5052 41.1788 24.8502 38.7263 24.5551 36.2182L24.3477 34.4551C24.1162 32.4879 24.0368 30.5059 24.1101 28.5266L24.289 23.697C24.4292 19.9115 25.0033 16.1546 26 12.5V12.5" stroke="#656565" stroke-width="1.5" stroke-dasharray="3 3"/>
<path d="M57.7983 32.5952C57.3247 32.5952 56.8364 32.5415 56.3335 32.4341C55.8306 32.3218 55.3252 32.1558 54.8174 31.936L55.2568 30.3906C55.6328 30.5518 56.0259 30.6885 56.436 30.8008C56.8462 30.9131 57.2808 30.9692 57.7397 30.9692C58.2085 30.9692 58.5649 30.8667 58.8091 30.6616C59.0532 30.4565 59.1753 30.1562 59.1753 29.7607C59.1753 29.4482 59.085 29.2041 58.9043 29.0283C58.7285 28.8477 58.438 28.6963 58.0327 28.5742L56.9707 28.2812C56.3164 28.0908 55.8013 27.7808 55.4253 27.3511C55.0542 26.9214 54.8687 26.377 54.8687 25.7178C54.8687 24.8438 55.1616 24.1626 55.7476 23.6743C56.3384 23.186 57.1709 22.9419 58.2451 22.9419C58.6797 22.9419 59.1167 22.9834 59.5562 23.0664C60.0005 23.1494 60.4155 23.2764 60.8013 23.4473L60.4644 25.0073C60.0884 24.8511 59.7148 24.7388 59.3438 24.6704C58.9727 24.5972 58.6162 24.5605 58.2744 24.5605C57.7373 24.5605 57.354 24.6558 57.1245 24.8462C56.895 25.0317 56.7803 25.2905 56.7803 25.6226C56.7803 25.8716 56.8511 26.0718 56.9927 26.2231C57.1343 26.3745 57.3711 26.5039 57.7031 26.6113L58.8311 26.9629C59.3096 27.1094 59.7173 27.2998 60.0542 27.5342C60.3911 27.7637 60.6499 28.0518 60.8306 28.3984C61.0112 28.7402 61.1016 29.1602 61.1016 29.6582C61.1016 30.5615 60.8306 31.2769 60.2886 31.8042C59.7466 32.3315 58.9165 32.5952 57.7983 32.5952ZM62.4346 35.3491V25.1392H64.1045L64.2583 25.5859C64.5854 25.4004 64.9248 25.2612 65.2764 25.1685C65.6328 25.0757 65.9575 25.0293 66.2505 25.0293C67.1831 25.0293 67.8789 25.3418 68.3379 25.9668C68.7969 26.5869 69.0264 27.5366 69.0264 28.8159C69.0264 30.105 68.7773 31.0571 68.2793 31.6724C67.7812 32.2876 67.0806 32.5952 66.1772 32.5952C65.8892 32.5952 65.5791 32.5562 65.2471 32.478C64.915 32.395 64.6172 32.2632 64.3535 32.0825V35.3491H62.4346ZM64.3535 31.687L63.5918 29.8779C64.0117 30.2539 64.3828 30.5273 64.7051 30.6982C65.0322 30.8643 65.3667 30.9473 65.7085 30.9473C66.2114 30.9473 66.5703 30.7861 66.7852 30.4639C67 30.1416 67.1074 29.5947 67.1074 28.8232C67.1074 28.0664 67.0049 27.5195 66.7998 27.1826C66.5947 26.8457 66.2554 26.6772 65.7817 26.6772C65.479 26.6772 65.1519 26.7554 64.8003 26.9116C64.4487 27.063 64.041 27.3267 63.5771 27.7026L64.3535 26.1792V31.687ZM70.5791 32.5V22.5537H72.498V25.5566C72.9033 25.3564 73.2573 25.2197 73.5601 25.1465C73.8677 25.0684 74.2021 25.0293 74.5635 25.0293C75.0127 25.0293 75.4131 25.1245 75.7646 25.3149C76.1211 25.5005 76.3994 25.7861 76.5996 26.1719C76.8047 26.5527 76.9072 27.0435 76.9072 27.644V32.5H74.9883V28.0249C74.9883 27.5317 74.9175 27.1851 74.7759 26.9849C74.6343 26.7798 74.3682 26.6772 73.9775 26.6772C73.6748 26.6772 73.3647 26.7358 73.0474 26.853C72.73 26.9653 72.4297 27.1265 72.1465 27.3364L72.498 26.1572V32.5H70.5791ZM81.7632 32.5952C80.6499 32.5952 79.8003 32.2803 79.2144 31.6504C78.6284 31.0205 78.3354 30.0806 78.3354 28.8306C78.3354 28.1226 78.4233 27.5269 78.5991 27.0435C78.7749 26.5552 79.0166 26.1646 79.3242 25.8716C79.6367 25.5737 79.9932 25.3589 80.3936 25.2271C80.7988 25.0952 81.2261 25.0293 81.6753 25.0293C82.2612 25.0293 82.7764 25.1514 83.2207 25.3955C83.6699 25.6396 84.019 25.9985 84.2681 26.4722C84.522 26.9409 84.6489 27.5195 84.6489 28.208C84.6489 28.3301 84.644 28.5107 84.6343 28.75C84.6294 28.9893 84.6123 29.2163 84.583 29.4312H79.5806L80.2544 28.9404C80.2446 29.4678 80.3008 29.8853 80.4229 30.1929C80.5449 30.4956 80.7231 30.7129 80.9575 30.8447C81.1968 30.9717 81.4849 31.0352 81.8218 31.0352C82.188 31.0352 82.5225 30.9912 82.8252 30.9033C83.1328 30.8105 83.4819 30.6763 83.8726 30.5005L84.4951 31.8921C84.0947 32.1216 83.6504 32.2974 83.1621 32.4194C82.6787 32.5366 82.2124 32.5952 81.7632 32.5952ZM82.8179 29.1016V28.3618C82.8618 27.7515 82.7812 27.2803 82.5762 26.9482C82.3711 26.6113 82.0513 26.4429 81.6167 26.4429C81.1187 26.4429 80.7549 26.6357 80.5254 27.0215C80.2959 27.4023 80.2056 27.9688 80.2544 28.7207L79.5806 28.2227H83.3672L82.8179 29.1016ZM86.165 32.5V25.1392H87.7983L88.0107 25.813C88.2109 25.6616 88.4551 25.5176 88.7432 25.3809C89.0312 25.2441 89.3291 25.1294 89.6367 25.0366C89.9443 24.9438 90.2227 24.8926 90.4717 24.8828V26.875C90.1006 26.875 89.7319 26.9092 89.3657 26.9775C89.0044 27.041 88.6797 27.1313 88.3916 27.2485C88.1035 27.3657 87.8813 27.5049 87.7251 27.666L88.084 26.6626V32.5H86.165ZM94.6831 32.5952C93.5698 32.5952 92.7202 32.2803 92.1343 31.6504C91.5483 31.0205 91.2554 30.0806 91.2554 28.8306C91.2554 28.1226 91.3433 27.5269 91.519 27.0435C91.6948 26.5552 91.9365 26.1646 92.2441 25.8716C92.5566 25.5737 92.9131 25.3589 93.3135 25.2271C93.7188 25.0952 94.146 25.0293 94.5952 25.0293C95.1812 25.0293 95.6963 25.1514 96.1406 25.3955C96.5898 25.6396 96.939 25.9985 97.188 26.4722C97.4419 26.9409 97.5688 27.5195 97.5688 28.208C97.5688 28.3301 97.564 28.5107 97.5542 28.75C97.5493 28.9893 97.5322 29.2163 97.5029 29.4312H92.5005L93.1743 28.9404C93.1646 29.4678 93.2207 29.8853 93.3428 30.1929C93.4648 30.4956 93.6431 30.7129 93.8774 30.8447C94.1167 30.9717 94.4048 31.0352 94.7417 31.0352C95.1079 31.0352 95.4424 30.9912 95.7451 30.9033C96.0527 30.8105 96.4019 30.6763 96.7925 30.5005L97.415 31.8921C97.0146 32.1216 96.5703 32.2974 96.082 32.4194C95.5986 32.5366 95.1323 32.5952 94.6831 32.5952ZM95.7378 29.1016V28.3618C95.7817 27.7515 95.7012 27.2803 95.4961 26.9482C95.291 26.6113 94.9712 26.4429 94.5366 26.4429C94.0386 26.4429 93.6748 26.6357 93.4453 27.0215C93.2158 27.4023 93.1255 27.9688 93.1743 28.7207L92.5005 28.2227H96.2871L95.7378 29.1016ZM101.414 32.5952C101.009 32.5952 100.557 32.5439 100.059 32.4414C99.5659 32.3389 99.0776 32.1582 98.5942 31.8994L99.1289 30.4565C99.5293 30.6665 99.937 30.8228 100.352 30.9253C100.767 31.0229 101.128 31.0718 101.436 31.0718C101.773 31.0718 102.044 31.0181 102.249 30.9106C102.459 30.8032 102.564 30.6152 102.564 30.3467C102.564 30.1758 102.518 30.0391 102.425 29.9365C102.337 29.8291 102.186 29.7461 101.971 29.6875L100.477 29.3066C99.9932 29.1748 99.583 28.9453 99.2461 28.6182C98.9092 28.291 98.7407 27.8418 98.7407 27.2705C98.7407 26.7822 98.8604 26.3721 99.0996 26.04C99.3389 25.708 99.6782 25.4565 100.118 25.2856C100.557 25.1147 101.077 25.0293 101.678 25.0293C102.039 25.0293 102.432 25.0708 102.857 25.1538C103.282 25.2368 103.68 25.3662 104.051 25.542L103.501 26.9556C103.155 26.8091 102.811 26.7041 102.469 26.6406C102.127 26.5771 101.822 26.5454 101.553 26.5454C101.221 26.5454 100.962 26.6016 100.777 26.7139C100.596 26.8213 100.506 26.9849 100.506 27.2046C100.506 27.3853 100.562 27.5171 100.674 27.6001C100.792 27.6831 100.977 27.7612 101.231 27.8345L102.505 28.1641C102.852 28.252 103.162 28.3789 103.436 28.5449C103.714 28.7109 103.931 28.9331 104.087 29.2114C104.249 29.4897 104.329 29.8438 104.329 30.2734C104.329 30.7666 104.214 31.189 103.985 31.5405C103.76 31.8872 103.431 32.1509 102.996 32.3315C102.566 32.5073 102.039 32.5952 101.414 32.5952Z" fill="#656565"/>
</g>
<defs>
<filter id="filter0_d_1971_159" x="0" y="0" width="117" height="56" filterUnits="userSpaceOnUse" color-interpolation-filters="sRGB">
<feFlood flood-opacity="0" result="BackgroundImageFix"/>
<feColorMatrix in="SourceAlpha" type="matrix" values="0 0 0 0 0 0 0 0 0 0 0 0 0 0 0 0 0 0 127 0" result="hardAlpha"/>
<feOffset/>
<feGaussianBlur stdDeviation="1.5"/>
<feComposite in2="hardAlpha" operator="out"/>
<feColorMatrix type="matrix" values="0 0 0 0 0 0 0 0 0 0 0 0 0 0 0 0 0 0 0.1 0"/>
<feBlend mode="normal" in2="BackgroundImageFix" result="effect1_dropShadow_1971_159"/>
<feBlend mode="normal" in="SourceGraphic" in2="effect1_dropShadow_1971_159" result="shape"/>
</filter>
</defs>
</svg>
